<?xml version="1.0" encoding="UTF-8"?>
<svg id="_레이어_1" data-name="레이어_1" xmlns="http://www.w3.org/2000/svg" version="1.1" xmlns:xlink="http://www.w3.org/1999/xlink" viewBox="0 0 1920 467">
  <!-- Generator: Adobe Illustrator 30.8.1, SVG Export Plug-In . SVG Version: 2.1.4 Build 1)  -->
  <defs>
    <style>
      .st0, .st1, .st2, .st3, .st4, .st5, .st6, .st7, .st8, .st9, .st10, .st11 {
        stroke-linecap: round;
        stroke-linejoin: round;
      }

      .st0, .st3 {
        fill: none;
      }

      .st0, .st9 {
        stroke: #182660;
      }

      .st1 {
        fill: #76c5fd;
      }

      .st1, .st2, .st3, .st4, .st5, .st6, .st7, .st8, .st10, .st11 {
        stroke: #35417f;
      }

      .st12 {
        fill: url(#_무제_그라디언트);
      }

      .st2 {
        fill: #ffe963;
      }

      .st13 {
        fill: #59b57a;
      }

      .st14, .st5 {
        fill: #fffca1;
      }

      .st15 {
        mask: url(#mask);
      }

      .st16, .st10 {
        fill: #ffd6d4;
      }

      .st4 {
        fill: #4d63c1;
      }

      .st17 {
        fill: #8cdeaa;
      }

      .st18 {
        fill: #94eba3;
      }

      .st6 {
        fill: #fff;
      }

      .st19, .st7 {
        fill: #35417f;
      }

      .st8 {
        fill: #b6e2ff;
      }

      .st9 {
        fill: #182660;
      }

      .st20 {
        fill: #56606e;
      }

      .st21 {
        fill: #969da3;
      }

      .st11 {
        fill: #64b9ff;
      }
    </style>
    <linearGradient id="_무제_그라디언트" data-name="무제 그라디언트" x1="-.94" y1="443.7" x2="1919.06" y2="25.7" gradientTransform="translate(0 468) scale(1 -1)" gradientUnits="userSpaceOnUse">
      <stop offset="0" stop-color="#f0f8ff"/>
      <stop offset="1" stop-color="#cbe6ff"/>
    </linearGradient>
    <mask id="mask" x="0" y="0" width="1920" height="487.76" maskUnits="userSpaceOnUse">
      <g id="mask0_2465_115278">
        <rect class="st12" width="1920" height="467"/>
      </g>
    </mask>
  </defs>
  <g class="st15">
    <g>
      <path class="st21" d="M356.43,93.53h-56.18c-.31,0-.56-.25-.56-.56s.25-.56.56-.56h56.18c.31,0,.56.25.56.56s-.25.56-.56.56Z"/>
      <path class="st21" d="M346.15,86.94h-.04c-.31-.02-.55-.29-.52-.6.2-2.96-.67-5.65-2.45-7.57-1.51-1.61-3.56-2.54-5.65-2.54-4.38,0-7.94,3.89-7.94,8.67,0,.31-.25.56-.56.56s-.56-.25-.56-.56c0-5.4,4.07-9.79,9.06-9.79,2.4,0,4.75,1.05,6.46,2.89,2,2.14,2.98,5.13,2.76,8.41-.02.3-.27.52-.56.52h0Z"/>
      <path class="st21" d="M305.68,84.23c-.31,0-.56-.25-.56-.56,0-8.06,6.05-14.61,13.5-14.61,5.78,0,10.91,3.98,12.78,9.89.09.3-.07.61-.36.7-.3.1-.61-.07-.7-.37-1.72-5.45-6.42-9.1-11.7-9.1-6.82,0-12.38,6.05-12.38,13.49,0,.31-.25.56-.56.56h0Z"/>
      <path class="st21" d="M300.25,93.52c-3.52,0-6.39-3.1-6.39-6.9s2.87-6.9,6.39-6.9c.31,0,.56.25.56.56s-.25.56-.56.56c-2.9,0-5.27,2.59-5.27,5.78s2.37,5.78,5.27,5.78c.31,0,.56.25.56.56s-.25.56-.56.56Z"/>
      <path class="st21" d="M337.99,75.76s-.07,0-.11,0c-.31-.05-.51-.35-.45-.65.07-.37.11-.76.11-1.15,0-3.19-2.37-5.78-5.27-5.78-2.46,0-4.62,1.9-5.15,4.52-.06.31-.36.5-.66.44-.31-.06-.5-.36-.44-.66.63-3.14,3.26-5.42,6.25-5.42,3.52,0,6.39,3.1,6.39,6.9,0,.46-.04.9-.12,1.35-.05.27-.28.46-.55.46h0Z"/>
      <path class="st21" d="M356.79,93.12s-.07,0-.1,0c-.31-.05-.51-.35-.45-.65.07-.4.11-.8.11-1.21,0-3.36-2.49-6.09-5.56-6.09-2.59,0-4.88,2.01-5.43,4.77-.06.31-.36.5-.66.44-.31-.06-.5-.36-.44-.66.66-3.28,3.41-5.66,6.53-5.66,3.69,0,6.68,3.23,6.68,7.21,0,.48-.04.95-.13,1.41-.05.27-.28.46-.55.46h0Z"/>
      <path class="st21" d="M469.52,27.6h-38.08c-.31,0-.56-.25-.56-.56s.25-.56.56-.56h38.08c.31,0,.56.25.56.56s-.25.56-.56.56Z"/>
      <path class="st21" d="M431.81,21.25c-.31,0-.56-.25-.56-.56,0-5.6,4.56-10.17,10.17-10.17,4.35,0,8.22,2.76,9.62,6.87.1.29-.05.61-.35.71-.29.1-.61-.05-.71-.35-1.25-3.66-4.7-6.12-8.57-6.12-4.99,0-9.05,4.06-9.05,9.05,0,.31-.25.56-.56.56h0Z"/>
      <path class="st21" d="M450.52,19.46c-.31,0-.56-.25-.56-.56,0-5.6,4.56-10.17,10.17-10.17,4.35,0,8.22,2.76,9.62,6.87.1.29-.06.61-.35.71-.3.1-.61-.06-.71-.35-1.25-3.66-4.7-6.12-8.56-6.12-4.99,0-9.05,4.06-9.05,9.05,0,.31-.25.56-.56.56h0Z"/>
      <path class="st21" d="M431.44,27.6c-2.7,0-4.9-2.19-4.9-4.9s2.2-4.9,4.9-4.9c.31,0,.56.25.56.56s-.25.56-.56.56c-2.08,0-3.78,1.69-3.78,3.78s1.69,3.78,3.78,3.78c.31,0,.56.25.56.56s-.25.56-.56.56Z"/>
      <path class="st21" d="M469.45,27.6c-.31,0-.56-.25-.56-.56s.25-.56.56-.56c2.08,0,3.78-1.69,3.78-3.78s-1.69-3.78-3.78-3.78c-.31,0-.56-.25-.56-.56s.25-.56.56-.56c2.7,0,4.9,2.19,4.9,4.9s-2.2,4.9-4.9,4.9Z"/>
      <path class="st21" d="M408.34,96.19h-25.46c-.31,0-.56-.25-.56-.56s.25-.56.56-.56h25.46c.31,0,.56.25.56.56s-.25.56-.56.56Z"/>
      <path class="st21" d="M415.33,91.81h-24.29c-.31,0-.56-.25-.56-.56s.25-.56.56-.56h24.29c.31,0,.56.25.56.56s-.25.56-.56.56Z"/>
      <path class="st21" d="M884.74,54.9h-14.81c-.31,0-.56-.25-.56-.56s.25-.56.56-.56h14.81c.31,0,.56.25.56.56s-.25.56-.56.56Z"/>
      <path class="st21" d="M888.37,60.63h-29.46c-.31,0-.56-.25-.56-.56s.25-.56.56-.56h29.46c.31,0,.56.25.56.56s-.25.56-.56.56Z"/>
      <path class="st21" d="M963.74,14.39h-7.84c-.31,0-.56-.25-.56-.56s.25-.56.56-.56h7.84c.31,0,.56.25.56.56s-.25.56-.56.56Z"/>
      <path class="st21" d="M965.67,18.64h-15.59c-.31,0-.56-.25-.56-.56s.25-.56.56-.56h15.59c.31,0,.56.25.56.56s-.25.56-.56.56Z"/>
      <path class="st21" d="M546.54,90.3h-7.84c-.31,0-.56-.25-.56-.56s.25-.56.56-.56h7.84c.31,0,.56.25.56.56s-.25.56-.56.56Z"/>
      <path class="st21" d="M548.47,94.55h-15.59c-.31,0-.56-.25-.56-.56s.25-.56.56-.56h15.59c.31,0,.56.25.56.56s-.25.56-.56.56Z"/>
      <path class="st21" d="M250.01,468.54h-41.76c-.31,0-.55-.25-.56-.54l-7.35-316.87c0-.22.12-.42.31-.51l49.28-23.92c.17-.08.38-.07.54.03.17.11.26.28.26.47l.41,167.38c0,.31-.25.56-.56.56s-.56-.25-.56-.56l-.41-166.48-48.15,23.37,7.32,315.97h40.66l-.77-144.13c0-.31.25-.56.56-.56s.56.25.56.56l.77,144.69c0,.15-.06.29-.16.4-.1.1-.25.16-.4.16h0Z"/>
      <path class="st21" d="M659.79,313.76h-.02l-408.59-18.31c-.31-.02-.54-.28-.54-.58.01-.31.27-.55.58-.54l408.59,18.31c.31.01.55.28.54.58-.02.3-.26.54-.56.54Z"/>
      <path class="st21" d="M463.93,284.09h-.02c-.31,0-.55-.26-.54-.57l.58-23.01c0-.31.25-.54.56-.54h.01c.31,0,.55.26.55.57l-.58,23.01c0,.31-.25.54-.56.54Z"/>
      <path class="st21" d="M463.67,255.75c-.31,0-.56-.25-.56-.55l-.34-33.82c0-.31.25-.56.55-.57.31,0,.56.25.56.55l.34,33.82c0,.31-.25.56-.55.57Z"/>
      <path class="st21" d="M463.29,216.24c-.31,0-.56-.25-.56-.55l-.36-35.33c0-.31.25-.56.55-.57.31,0,.56.25.56.55l.36,35.33c0,.31-.25.56-.55.57Z"/>
      <path class="st21" d="M462.89,175.27c-.31,0-.56-.25-.56-.55l-.29-31.96-211.9-15.01c-.31-.02-.54-.29-.51-.6.02-.31.29-.54.6-.51l212.42,15.04c.29.02.51.26.52.55l.3,32.48c0,.31-.25.56-.55.57h-.01Z"/>
      <path class="st21" d="M244.54,468.54c-.3,0-.55-.24-.56-.54,0-.31.23-.57.54-.58l418.95-13.07v-113.23c0-.31.25-.56.56-.56s.56.25.56.56v113.78c0,.31-.24.55-.54.56l-419.48,13.1h-.02Z"/>
      <path class="st21" d="M674.46,318.86h-.03c-.31-.02-.55-.28-.53-.59l.2-3.87-14.34-.63c-.31-.01-.54-.28-.54-.58,0-.31.28-.54.58-.54l14.9.66c.15,0,.29.07.39.19s.15.25.14.4l-.23,4.43c-.01.3-.26.53-.56.53h.02Z"/>
      <path class="st21" d="M195.58,155.07c-.09,0-.19-.02-.27-.07-.18-.1-.29-.28-.29-.49v-7.13c0-.21.12-.4.31-.5l54.6-28c.09-.04.19-.07.3-.06l219.19,16.26c.29.02.52.27.52.56v7.11c0,.16-.07.31-.18.41-.11.1-.26.16-.42.15l-6.78-.51c-.31-.02-.54-.29-.51-.6.02-.31.29-.54.6-.51l6.17.46v-5.99l-218.52-16.21-54.15,27.77v5.77l4.46-2.84c.26-.17.6-.09.78.17.16.26.09.61-.17.78l-5.32,3.4c-.09.06-.19.09-.3.09v-.02Z"/>
      <path class="st21" d="M462.67,150.53c-.13,0-.28-.05-.38-.15-.22-.21-.24-.57-.03-.79l6.7-7.22c.21-.22.57-.24.79-.03s.24.57.03.79l-6.7,7.22c-.11.12-.26.18-.41.18Z"/>
      <path class="st21" d="M469.37,181.04h-.04l-219.07-15.95c-.31-.02-.54-.29-.51-.6.02-.31.3-.54.6-.51l218.75,15.93,2.55-3.69-221.46-16.11c-.31-.02-.54-.29-.51-.6.02-.31.3-.54.6-.51l222.43,16.18c.2.01.38.13.46.31.09.18.07.4-.04.56l-3.28,4.75c-.11.15-.28.24-.46.24h0Z"/>
      <path class="st21" d="M468.16,221.93h-.04l-217.6-14.88c-.31-.02-.54-.29-.52-.6.02-.31.3-.54.6-.52l217.28,14.86,2.55-3.68-220.07-15.24c-.31-.02-.55-.29-.52-.6s.3-.54.6-.52l221.05,15.31c.2.01.38.13.46.31.09.18.07.39-.04.56l-3.28,4.75c-.11.15-.28.24-.46.24h.02Z"/>
      <path class="st21" d="M469.08,261.22h-.03l-218.6-10.54c-.31-.01-.55-.28-.53-.59.01-.31.28-.54.59-.53l218.28,10.52,2.53-3.67-220.62-10.92c-.31-.02-.54-.28-.53-.59.01-.31.27-.54.59-.53l221.63,10.96c.2,0,.38.13.48.31.09.18.07.4-.05.57l-3.28,4.75c-.1.15-.28.24-.46.24h0Z"/>
      <path class="st21" d="M463.51,227.94c-.12,0-.24-.04-.34-.12-.25-.19-.29-.54-.1-.78l4.65-6c.19-.25.54-.29.78-.1.25.19.29.54.1.78l-4.65,6c-.11.14-.28.22-.44.22Z"/>
      <path class="st21" d="M463.11,188.41c-.13,0-.25-.04-.37-.14-.24-.2-.26-.55-.07-.79l6.26-7.37c.2-.24.55-.26.79-.07.24.2.26.55.07.79l-6.26,7.37c-.11.13-.27.19-.43.19h0Z"/>
      <path class="st21" d="M464.34,269.11c-.1,0-.19-.02-.28-.08-.27-.16-.35-.5-.19-.77l4.73-7.89c.16-.27.5-.35.77-.19.27.16.35.5.2.77l-4.73,7.89c-.11.17-.29.27-.48.27h0Z"/>
      <path class="st21" d="M462.63,146.92h-.04l-212.46-14.33c-.31-.02-.55-.29-.52-.6s.29-.54.6-.52l212.46,14.33c.31.02.54.29.52.6-.02.3-.27.52-.56.52Z"/>
      <path class="st21" d="M461.99,160.81h-.04l-211.77-14.33c-.31-.02-.54-.29-.52-.6.02-.31.28-.55.6-.52l211.77,14.33c.31.02.54.29.52.6-.02.3-.27.52-.56.52Z"/>
      <path class="st21" d="M461.99,151.5h-.04l-211.68-14.33c-.31-.02-.54-.29-.52-.6.02-.31.27-.55.6-.52l211.68,14.33c.31.02.54.29.52.6-.02.3-.27.52-.56.52Z"/>
      <path class="st21" d="M462.65,187.89h-.04l-212.21-14.52c-.31-.02-.54-.29-.52-.6.02-.31.29-.54.6-.52l212.21,14.52c.31.02.55.29.52.6-.02.3-.27.52-.56.52Z"/>
      <path class="st21" d="M462.48,200.12h-.04l-212.04-15.1c-.31-.02-.54-.29-.51-.6.02-.31.3-.54.6-.51l212.05,15.1c.31.02.54.29.51.6-.02.3-.27.52-.56.52h0Z"/>
      <path class="st21" d="M462.79,183.72h-.04l-212.48-14.42c-.31-.02-.54-.29-.52-.6.02-.31.29-.54.6-.52l212.48,14.42c.31.02.55.29.52.6-.02.3-.27.52-.56.52Z"/>
      <path class="st21" d="M462.99,225.2h-.04l-212.69-14.5c-.31-.02-.54-.29-.52-.6.02-.31.29-.54.6-.52l212.69,14.5c.31.02.54.29.52.6-.02.3-.27.52-.56.52Z"/>
      <path class="st21" d="M463.95,265.4h-.02l-213.31-9.11c-.31-.02-.55-.28-.54-.58.01-.3.25-.54.58-.54l213.31,9.11c.31.01.54.28.54.58-.02.3-.26.54-.56.54Z"/>
      <path class="st21" d="M290.15,162.31h-.01c-.31,0-.55-.26-.55-.57l.57-26.99c0-.31.25-.56.58-.54.31,0,.55.26.54.57l-.57,26.99c0,.31-.25.54-.56.54Z"/>
      <path class="st21" d="M324.81,165.52h-.02c-.31,0-.55-.26-.55-.57l.56-27.86c0-.31.29-.54.57-.54.31,0,.55.26.55.57l-.56,27.86c0,.31-.25.54-.56.54Z"/>
      <path class="st21" d="M359.46,168.04h-.01c-.31,0-.55-.26-.55-.57l.56-27.85c0-.31.27-.53.57-.54.31,0,.55.26.55.57l-.56,27.85c0,.31-.25.54-.56.54Z"/>
      <path class="st21" d="M392.77,170.36h-.02c-.31,0-.55-.26-.55-.57l.56-28.11c0-.31.28-.54.57-.54.31,0,.55.26.55.57l-.56,28.11c0,.31-.25.54-.56.54Z"/>
      <path class="st21" d="M427.74,172.56h-.01c-.31,0-.55-.26-.55-.57l.56-27.95c0-.31.25-.55.58-.54.31,0,.55.26.55.57l-.56,27.95c0,.31-.25.54-.56.54Z"/>
      <path class="st21" d="M290.15,204.19h0c-.31,0-.55-.26-.55-.57l.57-35.6c0-.31.25-.57.57-.55.31,0,.55.26.55.57l-.57,35.6c0,.31-.25.55-.56.55Z"/>
      <path class="st21" d="M324.81,207h0c-.31,0-.55-.26-.55-.57l.56-32.62c0-.31.27-.55.57-.55s.55.26.55.57l-.56,32.62c0,.31-.25.55-.56.55Z"/>
      <path class="st21" d="M359.46,208.91h0c-.31,0-.55-.26-.55-.57l.56-31.73c0-.31.28-.56.57-.55.31,0,.55.26.55.57l-.56,31.73c0,.31-.25.55-.56.55Z"/>
      <path class="st21" d="M392.77,211.24h0c-.31,0-.55-.26-.55-.57l.56-31.64c0-.31.25-.55.56-.55h0c.31,0,.55.26.55.57l-.56,31.64c0,.31-.25.55-.56.55Z"/>
      <path class="st21" d="M427.74,213.85h0c-.31,0-.55-.26-.55-.57l.56-31.6c0-.31.25-.55.56-.55h0c.31,0,.55.26.55.57l-.56,31.6c0,.31-.25.55-.56.55Z"/>
      <path class="st21" d="M462.77,228.11h-.04l-212.3-13.41c-.31-.02-.54-.28-.52-.6.02-.31.28-.55.6-.52l212.3,13.41c.31.02.54.28.52.6-.01.3-.26.52-.56.52Z"/>
      <path class="st21" d="M463.03,243.81h-.04l-212.72-13.13c-.31-.02-.54-.28-.52-.59.02-.31.28-.54.59-.52l212.72,13.13c.31.02.55.28.52.59-.02.3-.27.52-.56.52h.01Z"/>
      <path class="st21" d="M290.15,247.46h0c-.31,0-.55-.26-.55-.57l.57-33.24c0-.31.27-.54.57-.55.31,0,.55.26.55.57l-.57,33.24c0,.31-.25.55-.56.55Z"/>
      <path class="st21" d="M324.81,249.17h0c-.31,0-.55-.26-.55-.57l.56-33c0-.31.25-.56.57-.55.31,0,.55.26.55.57l-.56,33c0,.31-.25.55-.56.55Z"/>
      <path class="st21" d="M359.46,250.05h0c-.31,0-.55-.26-.55-.57l.56-31.55c0-.31.28-.55.57-.55.31,0,.55.26.55.57l-.56,31.55c0,.31-.25.55-.56.55Z"/>
      <path class="st21" d="M392.77,252.4h0c-.31,0-.55-.26-.55-.57l.56-31.43c0-.31.25-.55.56-.55h0c.31,0,.55.26.55.57l-.56,31.43c0,.31-.25.55-.56.55Z"/>
      <path class="st21" d="M427.74,253.69h0c-.31,0-.55-.26-.55-.57l.56-30.82c0-.31.28-.56.57-.55.31,0,.55.26.55.57l-.56,30.82c0,.31-.25.55-.56.55Z"/>
      <path class="st21" d="M674.46,315.04c-.31,0-.56-.25-.56-.56v-6.77l-422.73-18.49c-.31-.01-.54-.28-.54-.58.01-.31.28-.55.58-.54l423.27,18.51c.3.01.54.26.54.56v7.31c0,.31-.25.56-.56.56Z"/>
      <path class="st21" d="M673.72,337.05h-.02l-437.94-14.3c-.3,0-.54-.25-.54-.56v-25.99c0-.29.22-.53.52-.56l15.43-1.33c.31-.02.58.2.6.51.03.31-.2.58-.51.61l-14.92,1.28v4.79l14.8-1.9h.1l423.27,18.13c.31.02.55.28.54.58l-.75,18.21c-.02.3-.26.54-.56.54h-.01ZM236.32,321.66l436.85,14.26.7-17.1-422.66-18.1-14.89,1.92v19.01Z"/>
      <path class="st21" d="M261.78,289.23c-.31,0-.56-.25-.56-.56v-32.46c0-.31.25-.56.56-.56s.56.25.56.56v32.46c0,.31-.25.56-.56.56Z"/>
      <path class="st21" d="M270.61,290.24c-.31,0-.56-.25-.56-.56v-32.46c0-.31.25-.56.56-.56s.56.25.56.56v32.46c0,.31-.25.56-.56.56Z"/>
      <path class="st21" d="M299.97,287.09h-.03l-18.18-.94c-.3-.01-.53-.26-.53-.56v-28.33c0-.31.25-.56.56-.56s.56.25.56.56v27.8l17.06.88v-27.91c0-.31.25-.56.56-.56s.56.25.56.56v28.5c0,.16-.06.3-.17.4-.1.1-.24.16-.39.16h0Z"/>
      <path class="st21" d="M354.8,289.86h-.03l-18.18-.94c-.3-.01-.53-.26-.53-.56v-28.33c0-.31.25-.56.56-.56s.56.25.56.56v27.8l17.06.88v-27.91c0-.31.25-.56.56-.56s.56.25.56.56v28.5c0,.16-.06.3-.17.4-.1.1-.24.16-.39.16h0Z"/>
      <path class="st21" d="M407.93,292.29h-.03l-18.18-.94c-.3-.01-.53-.26-.53-.56v-28.33c0-.31.25-.56.56-.56s.56.25.56.56v27.8l17.06.88v-27.91c0-.31.25-.56.56-.56s.56.25.56.56v28.5c0,.16-.06.3-.17.4-.1.1-.24.16-.39.16h0Z"/>
      <path class="st21" d="M455,294.26h-.03l-18.18-.94c-.3-.02-.53-.26-.53-.56v-28.67c0-.31.25-.56.56-.56s.56.25.56.56v28.13l17.06.88v-28.5c0-.31.25-.56.56-.56s.56.25.56.56v29.09c0,.16-.06.3-.17.4-.1.1-.25.16-.39.16h0Z"/>
      <path class="st21" d="M312.41,291.9c-.31,0-.56-.25-.56-.56v-32.42c0-.31.25-.56.56-.56s.56.25.56.56v32.42c0,.31-.25.56-.56.56Z"/>
      <path class="st21" d="M321.25,292.29c-.31,0-.56-.25-.56-.56v-32.8c0-.31.25-.56.56-.56s.56.25.56.56v32.8c0,.31-.25.56-.56.56Z"/>
      <path class="st21" d="M367.43,293.79c-.31,0-.56-.25-.56-.56v-32.19c0-.31.25-.56.56-.56s.56.25.56.56v32.19c0,.31-.25.56-.56.56Z"/>
      <path class="st21" d="M376.26,294.39c-.31,0-.56-.25-.56-.56v-32.44c0-.31.25-.56.56-.56s.56.25.56.56v32.44c0,.31-.25.56-.56.56Z"/>
      <path class="st21" d="M419.03,296.24c-.31,0-.56-.25-.56-.56v-32.6c0-.31.25-.56.56-.56s.56.25.56.56v32.6c0,.31-.25.56-.56.56Z"/>
      <path class="st21" d="M427.87,296.65c-.31,0-.56-.25-.56-.56v-32.01c0-.31.25-.56.56-.56s.56.25.56.56v32.01c0,.31-.25.56-.56.56Z"/>
      <path class="st21" d="M463.95,298.04c-.31,0-.56-.25-.56-.56v-14.07c0-.31.25-.56.56-.56s.56.25.56.56v14.07c0,.31-.25.56-.56.56Z"/>
      <path class="st21" d="M226.92,468.38c-.31,0-.55-.24-.56-.54l-2.8-115.82c0-.26.17-.49.43-.56l26.06-6.62c.05-.02.1-.02.15-.02l414.16,10.04c.31,0,.55.26.54.57,0,.31-.23.55-.58.55l-414.09-10.04-25.55,6.49,2.79,115.37c0,.31-.24.57-.54.57h-.01Z"/>
      <path class="st21" d="M663.35,394.5l-413.75-1.97c-.31,0-.56-.25-.56-.56s.24-.53.56-.56l413.75,1.97c.31,0,.56.25.56.56s-.25.56-.56.56Z"/>
      <path class="st21" d="M251.2,435.88c-.31,0-.55-.25-.56-.55,0-.31.25-.56.55-.57l412.82-5.77h0c.31,0,.55.25.56.55,0,.31-.25.56-.55.57l-412.82,5.77h0Z"/>
      <path class="st21" d="M311.64,465.6c-.31,0-.56-.25-.56-.56v-133.17c0-.31.25-.56.56-.56s.56.25.56.56v133.17c0,.31-.25.56-.56.56Z"/>
      <path class="st21" d="M338.92,465.6c-.31,0-.56-.25-.56-.56v-133.17c0-.31.25-.56.56-.56s.56.25.56.56v133.17c0,.31-.25.56-.56.56Z"/>
      <path class="st21" d="M345.71,465.32c-.31,0-.56-.25-.56-.56v-132.89c0-.31.25-.56.56-.56s.56.25.56.56v132.89c0,.31-.25.56-.56.56Z"/>
      <path class="st21" d="M280.45,466.96c-.31,0-.56-.25-.56-.56v-135.56c0-.31.25-.56.56-.56s.56.25.56.56v135.56c0,.31-.25.56-.56.56Z"/>
      <path class="st21" d="M287.25,466.67c-.31,0-.56-.25-.56-.56v-135.28c0-.31.25-.56.56-.56s.56.25.56.56v135.28c0,.31-.25.56-.56.56Z"/>
      <path class="st21" d="M408.87,462.52c-.31,0-.56-.25-.56-.56v-127.48c0-.31.25-.56.56-.56s.56.25.56.56v127.48c0,.31-.25.56-.56.56Z"/>
      <path class="st21" d="M415.67,462.23c-.31,0-.56-.25-.56-.56v-127.06c0-.31.25-.56.56-.56s.56.25.56.56v127.06c0,.31-.25.56-.56.56Z"/>
      <path class="st21" d="M469.39,461.41c-.31,0-.56-.25-.56-.56v-125.13c0-.31.25-.56.56-.56s.56.25.56.56v125.13c0,.31-.25.56-.56.56Z"/>
      <path class="st21" d="M476.18,461.12c-.31,0-.56-.25-.56-.56v-124.84c0-.31.25-.56.56-.56s.56.25.56.56v124.84c0,.31-.25.56-.56.56Z"/>
      <path class="st21" d="M529.06,459.54c-.31,0-.56-.25-.56-.56v-121.35c0-.31.25-.56.56-.56s.56.25.56.56v121.35c0,.31-.25.56-.56.56Z"/>
      <path class="st21" d="M535.86,459.27c-.31,0-.56-.25-.56-.56v-121.07c0-.31.25-.56.56-.56s.56.25.56.56v121.07c0,.31-.25.56-.56.56Z"/>
      <path class="st21" d="M587.57,457.8c-.31,0-.56-.25-.56-.56v-118.1c0-.31.25-.56.56-.56s.56.25.56.56v118.1c0,.31-.25.56-.56.56Z"/>
      <path class="st21" d="M594.37,457.56c-.31,0-.56-.25-.56-.56v-117.87c0-.31.25-.56.56-.56s.56.25.56.56v117.87c0,.3-.25.56-.56.56Z"/>
      <path class="st21" d="M638.62,455.97c-.31,0-.56-.25-.56-.56v-114.3c0-.31.25-.56.56-.56s.56.25.56.56v114.3c0,.31-.25.56-.56.56Z"/>
      <path class="st21" d="M645.41,455.75c-.31,0-.56-.25-.56-.56v-114.29c0-.31.25-.56.56-.56s.56.25.56.56v114.29c0,.31-.25.56-.56.56Z"/>
      <path class="st21" d="M376.26,464.43c-.31,0-.56-.25-.56-.56v-130.33c0-.31.25-.56.56-.56s.56.25.56.56v130.33c0,.31-.25.56-.56.56Z"/>
      <path class="st21" d="M440.96,462.38c-.31,0-.56-.25-.56-.56v-127.55c0-.31.25-.56.56-.56s.56.25.56.56v127.55c0,.31-.25.56-.56.56Z"/>
      <path class="st21" d="M502.67,460.44c-.31,0-.56-.25-.56-.56v-123.52c0-.31.25-.56.56-.56s.56.25.56.56v123.52c0,.31-.25.56-.56.56Z"/>
      <path class="st21" d="M614.84,456.79c-.31,0-.56-.25-.56-.56v-116.71c0-.31.25-.56.56-.56s.56.25.56.56v116.71c0,.31-.25.56-.56.56Z"/>
      <path class="st21" d="M561.18,458.61c-.31,0-.56-.25-.56-.55l-1.49-120.29c0-.31.25-.56.55-.57.31,0,.56.25.56.55l1.49,120.29c0,.31-.25.56-.55.57Z"/>
      <path class="st21" d="M673.83,341.67h-.02l-424.49-12.48c-.31,0-.55-.27-.54-.58s.27-.55.57-.54l423.91,12.47v-5.66c0-.31.25-.56.56-.56s.56.25.56.56v6.25c0,.15-.06.3-.17.4-.11.1-.25.16-.39.16h0Z"/>
      <path class="st21" d="M201.05,157.97c-.09,0-.18-.02-.26-.07l-5.46-2.9c-.28-.14-.37-.48-.23-.75.14-.28.49-.37.75-.23l5.46,2.9c.28.14.37.48.23.75-.1.19-.29.3-.49.3Z"/>
      <path class="st21" d="M201.33,157.4c-.21,0-.41-.12-.51-.32-.13-.28-.01-.61.26-.75l48.86-23.33c.28-.14.61-.01.75.26.13.28.01.61-.26.75l-48.86,23.33c-.07.04-.16.05-.24.05h0Z"/>
      <path class="st21" d="M231.67,192.61c-.1,0-.21-.03-.31-.09-.16-.1-.25-.28-.25-.46l-.45-35.28c0-.22.13-.42.33-.51l8.26-3.68c.17-.07.37-.06.53.04.16.1.25.28.26.46l.38,35.39c0,.22-.13.43-.34.52l-8.2,3.57c-.07.03-.15.04-.22.04ZM231.78,157.13l.43,34.07,7.08-3.08-.37-34.17-7.15,3.19h0Z"/>
      <path class="st21" d="M233.93,191.44c-.31,0-.56-.25-.56-.55l-.38-32.5c0-.23.13-.44.35-.53l5.93-2.37c.29-.11.61.02.72.31.11.28-.02.61-.31.73l-5.57,2.23.37,32.12c0,.31-.25.56-.55.57h0Z"/>
      <path class="st21" d="M213.77,199.08c-.11,0-.21-.03-.31-.09-.16-.1-.25-.28-.25-.46l-.45-35.28c0-.22.13-.42.33-.51l8.26-3.68c.17-.07.37-.06.53.04.16.1.25.28.26.46l.38,35.39c0,.22-.13.43-.34.52l-8.2,3.57c-.08.03-.15.04-.22.04ZM213.88,163.6l.43,34.07,7.08-3.08-.37-34.17-7.15,3.19h0Z"/>
      <path class="st21" d="M216.03,197.91c-.31,0-.56-.25-.56-.55l-.38-32.5c0-.23.13-.44.35-.53l5.93-2.37c.29-.11.61.02.73.31.11.28-.02.61-.31.73l-5.57,2.23.37,32.12c0,.31-.25.56-.55.57h0Z"/>
      <path class="st21" d="M213.77,263.28c-.11,0-.21-.03-.31-.09-.16-.1-.25-.28-.25-.46l-.45-35.28c0-.22.13-.43.33-.51l8.26-3.68c.17-.07.37-.06.53.04.16.1.25.28.26.46l.38,35.39c0,.22-.13.43-.34.52l-8.2,3.57c-.08.03-.15.04-.22.04ZM213.88,227.81l.43,34.06,7.08-3.08-.37-34.17-7.15,3.19h0Z"/>
      <path class="st21" d="M216.03,262.11c-.31,0-.56-.25-.56-.55l-.38-32.5c0-.23.13-.44.35-.53l5.93-2.37c.29-.11.61.02.73.31.11.28-.02.61-.31.73l-5.57,2.23.37,32.12c0,.31-.25.56-.55.57h0Z"/>
      <path class="st21" d="M231.67,256.72c-.1,0-.21-.03-.31-.09-.16-.1-.25-.28-.25-.46l-.45-35.28c0-.22.13-.43.33-.51l8.26-3.68c.17-.08.37-.06.53.04.16.1.25.28.26.46l.38,35.39c0,.22-.13.43-.34.52l-8.2,3.57c-.07.03-.15.05-.22.05ZM231.78,221.25l.43,34.07,7.08-3.08-.37-34.17-7.15,3.19h0Z"/>
      <path class="st21" d="M233.93,255.55c-.31,0-.56-.25-.56-.55l-.38-32.5c0-.23.13-.44.35-.53l5.93-2.37c.29-.11.61.02.72.31.11.28-.02.61-.31.73l-5.57,2.23.37,32.12c0,.31-.25.56-.55.57h0Z"/>
      <path class="st21" d="M207.19,414.62h-.04c-44.76-3.37-89.62-15.81-129.73-35.95-.28-.14-.39-.48-.25-.75s.48-.39.75-.25c39.98,20.09,84.69,32.48,129.31,35.84.31.02.54.29.51.6-.02.29-.27.52-.56.52h0Z"/>
      <path class="st21" d="M142.22,402.61c-.07,0-.13-.01-.2-.04-.29-.11-.43-.44-.32-.72,2.89-7.42,9.07-13.51,16.53-16.29,7.28-2.72,15.69-2.26,22.65,1.19,3.61-7.44,12.34-14.03,23.52-17.69.3-.1.61.07.71.36.1.29-.07.61-.36.71-11.15,3.66-19.79,10.25-23.1,17.62-.06.14-.18.25-.33.3-.14.05-.31.04-.44-.04-6.77-3.56-15.09-4.08-22.25-1.4-7.17,2.68-13.1,8.53-15.88,15.65-.09.22-.3.36-.52.36h0Z"/>
      <path class="st21" d="M148.35,393.19c-.2,0-.4-.11-.49-.3-14.55-27.08-40.22-46.6-70.43-53.55-.3-.07-.49-.37-.42-.67.07-.3.37-.48.67-.42,30.52,7.02,56.46,26.75,71.16,54.11.15.28.04.61-.23.76-.08.04-.17.07-.26.07Z"/>
      <path class="st13" d="M292.45,406.42c36.56,0,66.43,28.63,68.42,64.68h-136.84c1.99-36.05,31.86-64.68,68.42-64.68Z"/>
      <path class="st20" d="M360.87,471.52h-136.84c-.12,0-.23-.05-.3-.14-.08-.08-.12-.19-.12-.31,2.01-36.49,32.25-65.08,68.84-65.08s66.83,28.58,68.84,65.08c0,.12-.03.23-.12.31-.08.08-.19.14-.3.14ZM224.47,470.68h135.95c-2.2-35.83-31.98-63.84-67.97-63.84s-65.77,28.01-67.97,63.84Z"/>
      <path class="st18" d="M216.69,432.09c22.06,0,40.07,17.26,41.27,39.01h-82.53c1.2-21.75,19.21-39.01,41.27-39.01h0Z"/>
      <path class="st20" d="M257.96,471.52h-82.53c-.12,0-.23-.05-.3-.14-.08-.08-.12-.19-.12-.31,1.22-22.1,19.53-39.41,41.69-39.41s40.47,17.31,41.69,39.41c0,.12-.03.23-.12.31-.08.08-.19.14-.3.14h0ZM175.87,470.68h81.64c-1.41-21.45-19.26-38.17-40.82-38.17s-39.41,16.73-40.82,38.17h0Z"/>
      <path class="st17" d="M356.3,431.52c22.38,0,40.65,17.52,41.87,39.58h-83.74c1.22-22.07,19.49-39.58,41.87-39.58Z"/>
      <path class="st20" d="M398.17,471.52h-83.74c-.12,0-.23-.05-.3-.13-.08-.08-.12-.19-.12-.31,1.24-22.42,19.81-39.98,42.29-39.98s41.05,17.56,42.29,39.98c0,.12-.03.23-.12.31-.07.08-.19.13-.3.13ZM314.88,470.68h82.85c-1.43-21.77-19.54-38.74-41.42-38.74s-39.99,16.98-41.42,38.74Z"/>
      <path class="st21" d="M1760.39,438.08h-31.18c-.15,0-.3-.06-.4-.17-.11-.11-.17-.25-.17-.4l2.36-218.5c0-.31.25-.56.56-.56h26.47c.31,0,.56.25.56.56l2.36,218.5c0,.15-.06.29-.17.4-.1.11-.24.17-.39.17ZM1729.77,436.96h30.05l-2.35-217.37h-25.36l-2.35,217.37h.01Z"/>
      <path class="st21" d="M1757.9,219.59c-.13,0-.25-.04-.35-.12-.24-.2-.29-.55-.09-.79l11.83-14.8h-49l11.84,14.8c.19.24.15.6-.09.79-.24.19-.6.16-.79-.09l-12.56-15.71c-.14-.17-.16-.4-.07-.59.09-.19.29-.32.51-.32h51.34c.22,0,.41.12.51.32.1.2.07.43-.07.59l-12.56,15.71c-.11.14-.28.21-.44.21h-.01Z"/>
      <path class="st21" d="M1790.67,203.88h-88.52c-.28,0-.52-.22-.56-.5l-4.47-40.79c-.02-.16.03-.32.14-.43.11-.12.26-.19.42-.19h97.46c.16,0,.32.07.42.19.11.12.16.28.15.43l-4.47,40.79c-.03.29-.28.5-.57.5ZM1702.66,202.75h87.51l4.34-39.67h-96.2l4.35,39.67Z"/>
      <path class="st21" d="M1725.66,212.45c-.07,0-.13,0-.2-.04l-23.5-8.57c-.29-.11-.44-.43-.34-.72.11-.29.43-.44.72-.34l23.5,8.57c.3.1.45.43.34.72-.08.22-.3.37-.52.37h0Z"/>
      <path class="st21" d="M1764.64,211.64c-.24,0-.46-.16-.54-.41-.09-.3.08-.61.38-.7l25.98-7.76c.3-.09.61.08.7.38.09.3-.08.62-.38.7l-25.98,7.76c-.05.02-.11.02-.16.02h0Z"/>
      <path class="st21" d="M1760.18,153.79c-.14,0-.28-.05-.39-.15-.22-.21-.24-.57-.03-.79l9.41-10.07h-48.75l9.39,10.07c.21.22.21.58-.03.79-.22.21-.58.2-.79-.03l-10.28-11.01c-.15-.17-.2-.4-.11-.61.09-.2.3-.34.52-.34h51.34c.23,0,.43.14.52.34.09.2.05.44-.1.61l-10.29,11.01c-.11.12-.26.18-.41.18Z"/>
      <path class="st21" d="M1775.91,142.57h-62.23c-.28,0-.52-.21-.56-.49l-3.15-26.74c-.01-.16.03-.32.14-.44.1-.12.26-.19.42-.19h68.51c.16,0,.32.07.42.19.11.12.16.28.14.44l-3.15,26.74c-.03.28-.28.49-.56.49h.02ZM1714.18,141.44h61.23l3.01-25.62h-67.25l3.01,25.62h0Z"/>
      <path class="st21" d="M1722.54,146.63c-.08,0-.15-.01-.23-.05l-8.86-4.07c-.29-.13-.41-.46-.28-.74.13-.29.47-.4.74-.28l8.87,4.07c.28.13.4.46.27.74-.09.21-.3.33-.51.33Z"/>
      <path class="st21" d="M1767,146.56c-.21,0-.42-.12-.51-.33-.12-.29,0-.62.29-.74l8.88-4c.28-.13.61,0,.74.28.13.29,0,.62-.29.74l-8.87,4c-.08.03-.15.05-.24.05h0Z"/>
      <path class="st21" d="M1719.12,175.9h-10.95c-.31,0-.56-.25-.56-.56v-5.69c0-.31.25-.56.56-.56h10.95c.31,0,.56.26.56.56v5.69c0,.31-.25.56-.56.56ZM1708.74,174.77h9.82v-4.56h-9.82v4.56Z"/>
      <path class="st21" d="M1711.67,175.9c-.31,0-.56-.25-.56-.56v-5.47c0-.31.25-.56.56-.56s.56.26.56.56v5.47c0,.31-.25.56-.56.56Z"/>
      <path class="st21" d="M1715.81,175.9c-.31,0-.56-.25-.56-.56v-5.47c0-.31.25-.56.56-.56s.56.26.56.56v5.47c0,.31-.25.56-.56.56Z"/>
      <path class="st21" d="M1719.12,173.05h-10.95c-.31,0-.56-.26-.56-.56s.25-.56.56-.56h10.95c.31,0,.56.26.56.56s-.25.56-.56.56Z"/>
      <path class="st21" d="M1735.46,175.9h-10.94c-.31,0-.57-.25-.57-.56v-5.69c0-.31.26-.56.57-.56h10.94c.31,0,.57.26.57.56v5.69c0,.31-.26.56-.57.56ZM1725.08,174.77h9.82v-4.56h-9.82v4.56Z"/>
      <path class="st21" d="M1728.01,175.9c-.3,0-.56-.25-.56-.56v-5.47c0-.31.26-.56.56-.56s.57.26.57.56v5.47c0,.31-.26.56-.57.56Z"/>
      <path class="st21" d="M1732.16,175.9c-.31,0-.57-.25-.57-.56v-5.47c0-.31.26-.56.57-.56s.56.26.56.56v5.47c0,.31-.26.56-.56.56Z"/>
      <path class="st21" d="M1735.46,173.05h-10.94c-.31,0-.57-.26-.57-.56s.26-.56.57-.56h10.94c.31,0,.57.26.57.56s-.26.56-.57.56Z"/>
      <path class="st21" d="M1751.81,175.9h-10.95c-.31,0-.56-.25-.56-.56v-5.69c0-.31.25-.56.56-.56h10.95c.31,0,.56.26.56.56v5.69c0,.31-.25.56-.56.56ZM1741.42,174.77h9.83v-4.56h-9.83v4.56Z"/>
      <path class="st21" d="M1744.36,175.9c-.31,0-.57-.25-.57-.56v-5.47c0-.31.26-.56.57-.56s.56.26.56.56v5.47c0,.31-.26.56-.56.56Z"/>
      <path class="st21" d="M1748.5,175.9c-.31,0-.56-.25-.56-.56v-5.47c0-.31.25-.56.56-.56s.56.26.56.56v5.47c0,.31-.25.56-.56.56Z"/>
      <path class="st21" d="M1751.81,173.05h-10.95c-.31,0-.56-.26-.56-.56s.25-.56.56-.56h10.95c.31,0,.56.26.56.56s-.25.56-.56.56Z"/>
      <path class="st21" d="M1768.15,175.9h-10.95c-.31,0-.57-.25-.57-.56v-5.69c0-.31.26-.56.57-.56h10.95c.3,0,.56.26.56.56v5.69c0,.31-.26.56-.56.56ZM1757.77,174.77h9.82v-4.56h-9.82v4.56Z"/>
      <path class="st21" d="M1760.69,175.9c-.3,0-.56-.25-.56-.56v-5.47c0-.31.26-.56.56-.56s.57.26.57.56v5.47c0,.31-.26.56-.57.56Z"/>
      <path class="st21" d="M1764.84,175.9c-.3,0-.56-.25-.56-.56v-5.47c0-.31.26-.56.56-.56s.57.26.57.56v5.47c0,.31-.26.56-.57.56Z"/>
      <path class="st21" d="M1768.15,173.05h-10.95c-.31,0-.57-.26-.57-.56s.26-.56.57-.56h10.95c.3,0,.56.26.56.56s-.26.56-.56.56Z"/>
      <path class="st21" d="M1784.49,175.9h-10.95c-.31,0-.56-.25-.56-.56v-5.69c0-.31.25-.56.56-.56h10.95c.31,0,.56.26.56.56v5.69c0,.31-.25.56-.56.56ZM1774.11,174.77h9.82v-4.56h-9.82v4.56Z"/>
      <path class="st21" d="M1777.04,175.9c-.31,0-.57-.25-.57-.56v-5.47c0-.31.26-.56.57-.56s.56.26.56.56v5.47c0,.31-.25.56-.56.56Z"/>
      <path class="st21" d="M1781.18,175.9c-.31,0-.56-.25-.56-.56v-5.47c0-.31.25-.56.56-.56s.56.26.56.56v5.47c0,.31-.25.56-.56.56Z"/>
      <path class="st21" d="M1784.49,173.05h-10.95c-.31,0-.56-.26-.56-.56s.25-.56.56-.56h10.95c.31,0,.56.26.56.56s-.25.56-.56.56Z"/>
      <path class="st21" d="M1777.48,455.43h-65.37c-.29,0-.53-.23-.56-.51l-1.57-17.35c-.01-.16.04-.32.14-.43.11-.12.26-.18.42-.18h68.51c.16,0,.31.07.41.18.11.12.16.27.14.43l-1.56,17.35c-.03.29-.27.51-.57.51h.01ZM1712.62,454.31h64.34l1.47-16.23h-67.28l1.47,16.23Z"/>
      <path class="st21" d="M1790.98,487.76h-92.2c-.3,0-.54-.23-.57-.52l-2.21-32.33c-.01-.16.05-.31.15-.42.11-.11.26-.18.41-.18h96.64c.16,0,.31.07.41.18.11.11.16.27.15.42l-2.21,32.33c-.02.29-.26.52-.56.52h-.01ZM1699.3,486.64h91.15l2.14-31.2h-95.44l2.14,31.2h.01Z"/>
      <path class="st21" d="M1725.56,449.43h-7.69c-.31,0-.57-.26-.57-.56v-5.35c0-.31.26-.56.57-.56h7.69c.31,0,.56.26.56.56v5.35c0,.31-.25.56-.56.56ZM1718.42,448.31h6.57v-4.22h-6.57v4.22Z"/>
      <path class="st21" d="M1720.32,449.43c-.31,0-.56-.26-.56-.56v-5.14c0-.31.25-.56.56-.56s.56.25.56.56v5.14c0,.31-.25.56-.56.56Z"/>
      <path class="st21" d="M1723.23,449.43c-.3,0-.56-.26-.56-.56v-5.14c0-.31.26-.56.56-.56s.57.25.57.56v5.14c0,.31-.26.56-.57.56Z"/>
      <path class="st21" d="M1725.56,446.76h-7.69c-.31,0-.57-.26-.57-.56s.26-.56.57-.56h7.69c.31,0,.56.26.56.56s-.25.56-.56.56Z"/>
      <path class="st21" d="M1737.05,449.43h-7.69c-.31,0-.57-.26-.57-.56v-5.35c0-.31.26-.56.57-.56h7.69c.31,0,.56.26.56.56v5.35c0,.31-.25.56-.56.56ZM1729.91,448.31h6.57v-4.22h-6.57v4.22Z"/>
      <path class="st21" d="M1731.81,449.43c-.31,0-.56-.26-.56-.56v-5.14c0-.31.25-.56.56-.56s.56.25.56.56v5.14c0,.31-.25.56-.56.56Z"/>
      <path class="st21" d="M1734.72,449.43c-.31,0-.56-.26-.56-.56v-5.14c0-.31.25-.56.56-.56s.56.25.56.56v5.14c0,.31-.25.56-.56.56Z"/>
      <path class="st21" d="M1737.05,446.76h-7.69c-.31,0-.57-.26-.57-.56s.26-.56.57-.56h7.69c.31,0,.56.26.56.56s-.25.56-.56.56Z"/>
      <path class="st21" d="M1748.54,449.43h-7.69c-.31,0-.57-.26-.57-.56v-5.35c0-.31.26-.56.57-.56h7.69c.3,0,.56.26.56.56v5.35c0,.31-.26.56-.56.56ZM1741.4,448.31h6.57v-4.22h-6.57v4.22Z"/>
      <path class="st21" d="M1743.3,449.43c-.31,0-.56-.26-.56-.56v-5.14c0-.31.25-.56.56-.56s.56.25.56.56v5.14c0,.31-.25.56-.56.56Z"/>
      <path class="st21" d="M1746.21,449.43c-.31,0-.56-.26-.56-.56v-5.14c0-.31.25-.56.56-.56s.56.25.56.56v5.14c0,.31-.25.56-.56.56Z"/>
      <path class="st21" d="M1748.54,446.76h-7.69c-.31,0-.57-.26-.57-.56s.26-.56.57-.56h7.69c.3,0,.56.26.56.56s-.26.56-.56.56Z"/>
      <path class="st21" d="M1760.03,449.43h-7.7c-.3,0-.56-.26-.56-.56v-5.35c0-.31.26-.56.56-.56h7.7c.3,0,.56.26.56.56v5.35c0,.31-.26.56-.56.56ZM1752.89,448.31h6.57v-4.22h-6.57v4.22Z"/>
      <path class="st21" d="M1754.79,449.43c-.31,0-.57-.26-.57-.56v-5.14c0-.31.26-.56.57-.56s.56.25.56.56v5.14c0,.31-.25.56-.56.56Z"/>
      <path class="st21" d="M1757.7,449.43c-.31,0-.56-.26-.56-.56v-5.14c0-.31.25-.56.56-.56s.56.25.56.56v5.14c0,.31-.25.56-.56.56Z"/>
      <path class="st21" d="M1760.03,446.76h-7.7c-.3,0-.56-.26-.56-.56s.26-.56.56-.56h7.7c.3,0,.56.26.56.56s-.26.56-.56.56Z"/>
      <path class="st21" d="M1771.51,449.43h-7.69c-.31,0-.56-.26-.56-.56v-5.35c0-.31.25-.56.56-.56h7.69c.31,0,.57.26.57.56v5.35c0,.31-.26.56-.57.56ZM1764.38,448.31h6.56v-4.22h-6.56v4.22Z"/>
      <path class="st21" d="M1766.28,449.43c-.31,0-.57-.26-.57-.56v-5.14c0-.31.26-.56.57-.56s.56.25.56.56v5.14c0,.31-.26.56-.56.56Z"/>
      <path class="st21" d="M1769.19,449.43c-.31,0-.56-.26-.56-.56v-5.14c0-.31.25-.56.56-.56s.56.25.56.56v5.14c0,.31-.25.56-.56.56Z"/>
      <path class="st21" d="M1771.51,446.76h-7.69c-.31,0-.56-.26-.56-.56s.25-.56.56-.56h7.69c.31,0,.57.26.57.56s-.26.56-.57.56Z"/>
      <path class="st21" d="M1713.41,469.7h-7.69c-.31,0-.56-.26-.56-.56v-5.35c0-.31.25-.56.56-.56h7.69c.31,0,.56.26.56.56v5.35c0,.31-.25.56-.56.56ZM1706.27,468.58h6.57v-4.22h-6.57v4.22Z"/>
      <path class="st21" d="M1708.17,469.7c-.31,0-.56-.26-.56-.56v-5.14c0-.31.25-.56.56-.56s.57.26.57.56v5.14c0,.31-.26.56-.57.56Z"/>
      <path class="st21" d="M1711.08,469.7c-.3,0-.56-.26-.56-.56v-5.14c0-.31.26-.56.56-.56s.57.26.57.56v5.14c0,.31-.26.56-.57.56Z"/>
      <path class="st21" d="M1713.41,467.03h-7.69c-.31,0-.56-.26-.56-.56s.25-.56.56-.56h7.69c.31,0,.56.25.56.56s-.25.56-.56.56Z"/>
      <path class="st21" d="M1724.9,469.7h-7.69c-.31,0-.57-.26-.57-.56v-5.35c0-.31.26-.56.57-.56h7.69c.31,0,.56.26.56.56v5.35c0,.31-.25.56-.56.56ZM1717.76,468.58h6.57v-4.22h-6.57v4.22Z"/>
      <path class="st21" d="M1719.66,469.7c-.31,0-.56-.26-.56-.56v-5.14c0-.31.25-.56.56-.56s.56.26.56.56v5.14c0,.31-.25.56-.56.56Z"/>
      <path class="st21" d="M1722.57,469.7c-.3,0-.56-.26-.56-.56v-5.14c0-.31.26-.56.56-.56s.57.26.57.56v5.14c0,.31-.26.56-.57.56Z"/>
      <path class="st21" d="M1724.9,467.03h-7.69c-.31,0-.57-.26-.57-.56s.26-.56.57-.56h7.69c.31,0,.56.25.56.56s-.25.56-.56.56Z"/>
      <path class="st21" d="M1736.39,469.7h-7.69c-.31,0-.57-.26-.57-.56v-5.35c0-.31.26-.56.57-.56h7.69c.31,0,.56.26.56.56v5.35c0,.31-.25.56-.56.56ZM1729.25,468.58h6.57v-4.22h-6.57v4.22Z"/>
      <path class="st21" d="M1731.15,469.7c-.31,0-.56-.26-.56-.56v-5.14c0-.31.25-.56.56-.56s.56.26.56.56v5.14c0,.31-.25.56-.56.56Z"/>
      <path class="st21" d="M1734.06,469.7c-.31,0-.56-.26-.56-.56v-5.14c0-.31.25-.56.56-.56s.56.26.56.56v5.14c0,.31-.25.56-.56.56Z"/>
      <path class="st21" d="M1736.39,467.03h-7.69c-.31,0-.57-.26-.57-.56s.26-.56.57-.56h7.69c.31,0,.56.25.56.56s-.25.56-.56.56Z"/>
      <path class="st21" d="M1747.88,469.7h-7.7c-.3,0-.56-.26-.56-.56v-5.35c0-.31.26-.56.56-.56h7.7c.3,0,.56.26.56.56v5.35c0,.31-.26.56-.56.56ZM1740.74,468.58h6.57v-4.22h-6.57v4.22Z"/>
      <path class="st21" d="M1742.64,469.7c-.31,0-.56-.26-.56-.56v-5.14c0-.31.25-.56.56-.56s.56.26.56.56v5.14c0,.31-.25.56-.56.56Z"/>
      <path class="st21" d="M1745.55,469.7c-.31,0-.56-.26-.56-.56v-5.14c0-.31.25-.56.56-.56s.56.26.56.56v5.14c0,.31-.25.56-.56.56Z"/>
      <path class="st21" d="M1747.88,467.03h-7.7c-.3,0-.56-.26-.56-.56s.26-.56.56-.56h7.7c.3,0,.56.25.56.56s-.26.56-.56.56Z"/>
      <path class="st21" d="M1759.37,469.7h-7.7c-.3,0-.56-.26-.56-.56v-5.35c0-.31.26-.56.56-.56h7.7c.3,0,.56.26.56.56v5.35c0,.31-.26.56-.56.56ZM1752.23,468.58h6.56v-4.22h-6.56v4.22Z"/>
      <path class="st21" d="M1754.13,469.7c-.31,0-.57-.26-.57-.56v-5.14c0-.31.26-.56.57-.56s.56.26.56.56v5.14c0,.31-.25.56-.56.56Z"/>
      <path class="st21" d="M1757.04,469.7c-.31,0-.56-.26-.56-.56v-5.14c0-.31.25-.56.56-.56s.56.26.56.56v5.14c0,.31-.25.56-.56.56Z"/>
      <path class="st21" d="M1759.37,467.03h-7.7c-.3,0-.56-.26-.56-.56s.26-.56.56-.56h7.7c.3,0,.56.25.56.56s-.26.56-.56.56Z"/>
      <path class="st21" d="M1770.67,469.7h-7.69c-.31,0-.56-.26-.56-.56v-5.35c0-.31.25-.56.56-.56h7.69c.31,0,.57.26.57.56v5.35c0,.31-.26.56-.57.56ZM1763.54,468.58h6.56v-4.22h-6.56v4.22Z"/>
      <path class="st21" d="M1765.44,469.7c-.31,0-.57-.26-.57-.56v-5.14c0-.31.26-.56.57-.56s.56.26.56.56v5.14c0,.31-.26.56-.56.56Z"/>
      <path class="st21" d="M1768.35,469.7c-.31,0-.57-.26-.57-.56v-5.14c0-.31.26-.56.57-.56s.56.26.56.56v5.14c0,.31-.25.56-.56.56Z"/>
      <path class="st21" d="M1770.67,467.03h-7.69c-.31,0-.56-.26-.56-.56s.25-.56.56-.56h7.69c.31,0,.57.25.57.56s-.26.56-.57.56Z"/>
      <path class="st21" d="M1782.16,469.7h-7.69c-.31,0-.56-.26-.56-.56v-5.35c0-.31.25-.56.56-.56h7.69c.31,0,.57.26.57.56v5.35c0,.31-.26.56-.57.56ZM1775.03,468.58h6.56v-4.22h-6.56v4.22Z"/>
      <path class="st21" d="M1776.92,469.7c-.3,0-.56-.26-.56-.56v-5.14c0-.31.26-.56.56-.56s.57.26.57.56v5.14c0,.31-.26.56-.57.56Z"/>
      <path class="st21" d="M1779.84,469.7c-.31,0-.57-.26-.57-.56v-5.14c0-.31.26-.56.57-.56s.56.26.56.56v5.14c0,.31-.26.56-.56.56Z"/>
      <path class="st21" d="M1782.16,467.03h-7.69c-.31,0-.56-.26-.56-.56s.25-.56.56-.56h7.69c.31,0,.57.25.57.56s-.26.56-.57.56Z"/>
      <path class="st21" d="M1725.61,131.96h-7.69c-.31,0-.56-.26-.56-.56v-5.35c0-.31.25-.56.56-.56h7.69c.31,0,.56.25.56.56v5.35c0,.31-.25.56-.56.56ZM1718.48,130.83h6.56v-4.22h-6.56v4.22Z"/>
      <path class="st21" d="M1720.37,131.96c-.3,0-.56-.26-.56-.56v-5.14c0-.31.26-.56.56-.56s.57.25.57.56v5.14c0,.31-.26.56-.57.56Z"/>
      <path class="st21" d="M1723.29,131.96c-.31,0-.57-.26-.57-.56v-5.14c0-.31.26-.56.57-.56s.56.25.56.56v5.14c0,.31-.26.56-.56.56Z"/>
      <path class="st21" d="M1725.61,129.29h-7.69c-.31,0-.56-.25-.56-.56s.25-.56.56-.56h7.69c.31,0,.56.26.56.56s-.25.56-.56.56Z"/>
      <path class="st21" d="M1737.1,131.96h-7.69c-.31,0-.56-.26-.56-.56v-5.35c0-.31.25-.56.56-.56h7.69c.31,0,.56.25.56.56v5.35c0,.31-.25.56-.56.56ZM1729.96,130.83h6.57v-4.22h-6.57v4.22Z"/>
      <path class="st21" d="M1731.86,131.96c-.3,0-.56-.26-.56-.56v-5.14c0-.31.26-.56.56-.56s.57.25.57.56v5.14c0,.31-.26.56-.57.56Z"/>
      <path class="st21" d="M1734.77,131.96c-.3,0-.56-.26-.56-.56v-5.14c0-.31.26-.56.56-.56s.57.25.57.56v5.14c0,.31-.26.56-.57.56Z"/>
      <path class="st21" d="M1737.1,129.29h-7.69c-.31,0-.56-.25-.56-.56s.25-.56.56-.56h7.69c.31,0,.56.26.56.56s-.25.56-.56.56Z"/>
      <path class="st21" d="M1748.59,131.96h-7.69c-.31,0-.57-.26-.57-.56v-5.35c0-.31.26-.56.57-.56h7.69c.31,0,.56.25.56.56v5.35c0,.31-.25.56-.56.56ZM1741.45,130.83h6.57v-4.22h-6.57v4.22Z"/>
      <path class="st21" d="M1743.35,131.96c-.31,0-.56-.26-.56-.56v-5.14c0-.31.25-.56.56-.56s.56.25.56.56v5.14c0,.31-.25.56-.56.56Z"/>
      <path class="st21" d="M1746.26,131.96c-.3,0-.56-.26-.56-.56v-5.14c0-.31.26-.56.56-.56s.57.25.57.56v5.14c0,.31-.26.56-.57.56Z"/>
      <path class="st21" d="M1748.59,129.29h-7.69c-.31,0-.57-.25-.57-.56s.26-.56.57-.56h7.69c.31,0,.56.26.56.56s-.25.56-.56.56Z"/>
      <path class="st21" d="M1760.08,131.96h-7.69c-.31,0-.57-.26-.57-.56v-5.35c0-.31.26-.56.57-.56h7.69c.31,0,.56.25.56.56v5.35c0,.31-.25.56-.56.56ZM1752.94,130.83h6.57v-4.22h-6.57v4.22Z"/>
      <path class="st21" d="M1754.84,131.96c-.31,0-.56-.26-.56-.56v-5.14c0-.31.25-.56.56-.56s.56.25.56.56v5.14c0,.31-.25.56-.56.56Z"/>
      <path class="st21" d="M1757.75,131.96c-.31,0-.56-.26-.56-.56v-5.14c0-.31.25-.56.56-.56s.56.25.56.56v5.14c0,.31-.25.56-.56.56Z"/>
      <path class="st21" d="M1760.08,129.29h-7.69c-.31,0-.57-.25-.57-.56s.26-.56.57-.56h7.69c.31,0,.56.26.56.56s-.25.56-.56.56Z"/>
      <path class="st21" d="M1771.57,131.96h-7.69c-.31,0-.57-.26-.57-.56v-5.35c0-.31.26-.56.57-.56h7.69c.3,0,.56.25.56.56v5.35c0,.31-.26.56-.56.56ZM1764.43,130.83h6.57v-4.22h-6.57v4.22Z"/>
      <path class="st21" d="M1766.33,131.96c-.31,0-.56-.26-.56-.56v-5.14c0-.31.25-.56.56-.56s.56.25.56.56v5.14c0,.31-.25.56-.56.56Z"/>
      <path class="st21" d="M1769.24,131.96c-.31,0-.56-.26-.56-.56v-5.14c0-.31.25-.56.56-.56s.56.25.56.56v5.14c0,.31-.25.56-.56.56Z"/>
      <path class="st21" d="M1771.57,129.29h-7.69c-.31,0-.57-.25-.57-.56s.26-.56.57-.56h7.69c.3,0,.56.26.56.56s-.26.56-.56.56Z"/>
      <path class="st21" d="M1719.12,185.62h-10.95c-.31,0-.56-.26-.56-.56v-5.69c0-.31.25-.56.56-.56h10.95c.31,0,.56.26.56.56v5.69c0,.31-.25.56-.56.56ZM1708.74,184.49h9.82v-4.56h-9.82v4.56Z"/>
      <path class="st21" d="M1711.67,185.62c-.31,0-.56-.26-.56-.56v-5.47c0-.31.25-.56.56-.56s.56.26.56.56v5.47c0,.31-.25.56-.56.56Z"/>
      <path class="st21" d="M1715.81,185.62c-.31,0-.56-.26-.56-.56v-5.47c0-.31.25-.56.56-.56s.56.26.56.56v5.47c0,.31-.25.56-.56.56Z"/>
      <path class="st21" d="M1719.12,182.77h-10.95c-.31,0-.56-.26-.56-.56s.25-.56.56-.56h10.95c.31,0,.56.26.56.56s-.25.56-.56.56Z"/>
      <path class="st21" d="M1735.46,185.62h-10.94c-.31,0-.57-.26-.57-.56v-5.69c0-.31.26-.56.57-.56h10.94c.31,0,.57.26.57.56v5.69c0,.31-.26.56-.57.56ZM1725.08,184.49h9.82v-4.56h-9.82v4.56Z"/>
      <path class="st21" d="M1728.01,185.62c-.3,0-.56-.26-.56-.56v-5.47c0-.31.26-.56.56-.56s.57.26.57.56v5.47c0,.31-.26.56-.57.56Z"/>
      <path class="st21" d="M1732.16,185.62c-.31,0-.57-.26-.57-.56v-5.47c0-.31.26-.56.57-.56s.56.26.56.56v5.47c0,.31-.26.56-.56.56Z"/>
      <path class="st21" d="M1735.46,182.77h-10.94c-.31,0-.57-.26-.57-.56s.26-.56.57-.56h10.94c.31,0,.57.26.57.56s-.26.56-.57.56Z"/>
      <path class="st21" d="M1751.81,185.62h-10.95c-.31,0-.56-.26-.56-.56v-5.69c0-.31.25-.56.56-.56h10.95c.31,0,.56.26.56.56v5.69c0,.31-.25.56-.56.56ZM1741.42,184.49h9.83v-4.56h-9.83v4.56Z"/>
      <path class="st21" d="M1744.36,185.62c-.31,0-.57-.26-.57-.56v-5.47c0-.31.26-.56.57-.56s.56.26.56.56v5.47c0,.31-.26.56-.56.56Z"/>
      <path class="st21" d="M1748.5,185.62c-.31,0-.56-.26-.56-.56v-5.47c0-.31.25-.56.56-.56s.56.26.56.56v5.47c0,.31-.25.56-.56.56Z"/>
      <path class="st21" d="M1751.81,182.77h-10.95c-.31,0-.56-.26-.56-.56s.25-.56.56-.56h10.95c.31,0,.56.26.56.56s-.25.56-.56.56Z"/>
      <path class="st21" d="M1768.15,185.62h-10.95c-.31,0-.57-.26-.57-.56v-5.69c0-.31.26-.56.57-.56h10.95c.3,0,.56.26.56.56v5.69c0,.31-.26.56-.56.56ZM1757.77,184.49h9.82v-4.56h-9.82v4.56Z"/>
      <path class="st21" d="M1760.69,185.62c-.3,0-.56-.26-.56-.56v-5.47c0-.31.26-.56.56-.56s.57.26.57.56v5.47c0,.31-.26.56-.57.56Z"/>
      <path class="st21" d="M1764.84,185.62c-.3,0-.56-.26-.56-.56v-5.47c0-.31.26-.56.56-.56s.57.26.57.56v5.47c0,.31-.26.56-.57.56Z"/>
      <path class="st21" d="M1768.15,182.77h-10.95c-.31,0-.57-.26-.57-.56s.26-.56.57-.56h10.95c.3,0,.56.26.56.56s-.26.56-.56.56Z"/>
      <path class="st21" d="M1784.49,185.62h-10.95c-.31,0-.56-.26-.56-.56v-5.69c0-.31.25-.56.56-.56h10.95c.31,0,.56.26.56.56v5.69c0,.31-.25.56-.56.56ZM1774.11,184.49h9.82v-4.56h-9.82v4.56Z"/>
      <path class="st21" d="M1777.04,185.62c-.31,0-.57-.26-.57-.56v-5.47c0-.31.26-.56.57-.56s.56.26.56.56v5.47c0,.31-.25.56-.56.56Z"/>
      <path class="st21" d="M1781.18,185.62c-.31,0-.56-.26-.56-.56v-5.47c0-.31.25-.56.56-.56s.56.26.56.56v5.47c0,.31-.25.56-.56.56Z"/>
      <path class="st21" d="M1784.49,182.77h-10.95c-.31,0-.56-.26-.56-.56s.25-.56.56-.56h10.95c.31,0,.56.26.56.56s-.25.56-.56.56Z"/>
      <path class="st21" d="M1719.12,195.33h-10.95c-.31,0-.56-.26-.56-.56v-5.69c0-.31.25-.56.56-.56h10.95c.31,0,.56.26.56.56v5.69c0,.31-.25.56-.56.56ZM1708.74,194.21h9.82v-4.56h-9.82v4.56Z"/>
      <path class="st21" d="M1711.67,195.33c-.31,0-.56-.26-.56-.56v-5.47c0-.31.25-.56.56-.56s.56.25.56.56v5.47c0,.31-.25.56-.56.56Z"/>
      <path class="st21" d="M1715.81,195.33c-.31,0-.56-.26-.56-.56v-5.47c0-.31.25-.56.56-.56s.56.25.56.56v5.47c0,.31-.25.56-.56.56Z"/>
      <path class="st21" d="M1719.12,192.49h-10.95c-.31,0-.56-.26-.56-.56s.25-.56.56-.56h10.95c.31,0,.56.26.56.56s-.25.56-.56.56Z"/>
      <path class="st21" d="M1735.46,195.33h-10.94c-.31,0-.57-.26-.57-.56v-5.69c0-.31.26-.56.57-.56h10.94c.31,0,.57.26.57.56v5.69c0,.31-.26.56-.57.56ZM1725.08,194.21h9.82v-4.56h-9.82v4.56Z"/>
      <path class="st21" d="M1728.01,195.33c-.3,0-.56-.26-.56-.56v-5.47c0-.31.26-.56.56-.56s.57.25.57.56v5.47c0,.31-.26.56-.57.56Z"/>
      <path class="st21" d="M1732.16,195.33c-.31,0-.57-.26-.57-.56v-5.47c0-.31.26-.56.57-.56s.56.25.56.56v5.47c0,.31-.26.56-.56.56Z"/>
      <path class="st21" d="M1735.46,192.49h-10.94c-.31,0-.57-.26-.57-.56s.26-.56.57-.56h10.94c.31,0,.57.26.57.56s-.26.56-.57.56Z"/>
      <path class="st21" d="M1751.81,195.33h-10.95c-.31,0-.56-.26-.56-.56v-5.69c0-.31.25-.56.56-.56h10.95c.31,0,.56.26.56.56v5.69c0,.31-.25.56-.56.56ZM1741.42,194.21h9.83v-4.56h-9.83v4.56Z"/>
      <path class="st21" d="M1744.36,195.33c-.31,0-.57-.26-.57-.56v-5.47c0-.31.26-.56.57-.56s.56.25.56.56v5.47c0,.31-.26.56-.56.56Z"/>
      <path class="st21" d="M1748.5,195.33c-.31,0-.56-.26-.56-.56v-5.47c0-.31.25-.56.56-.56s.56.25.56.56v5.47c0,.31-.25.56-.56.56Z"/>
      <path class="st21" d="M1751.81,192.49h-10.95c-.31,0-.56-.26-.56-.56s.25-.56.56-.56h10.95c.31,0,.56.26.56.56s-.25.56-.56.56Z"/>
      <path class="st21" d="M1768.15,195.33h-10.95c-.31,0-.57-.26-.57-.56v-5.69c0-.31.26-.56.57-.56h10.95c.3,0,.56.26.56.56v5.69c0,.31-.26.56-.56.56ZM1757.77,194.21h9.82v-4.56h-9.82v4.56Z"/>
      <path class="st21" d="M1760.69,195.33c-.3,0-.56-.26-.56-.56v-5.47c0-.31.26-.56.56-.56s.57.25.57.56v5.47c0,.31-.26.56-.57.56Z"/>
      <path class="st21" d="M1764.84,195.33c-.3,0-.56-.26-.56-.56v-5.47c0-.31.26-.56.56-.56s.57.25.57.56v5.47c0,.31-.26.56-.57.56Z"/>
      <path class="st21" d="M1768.15,192.49h-10.95c-.31,0-.57-.26-.57-.56s.26-.56.57-.56h10.95c.3,0,.56.26.56.56s-.26.56-.56.56Z"/>
      <path class="st21" d="M1784.49,195.33h-10.95c-.31,0-.56-.26-.56-.56v-5.69c0-.31.25-.56.56-.56h10.95c.31,0,.56.26.56.56v5.69c0,.31-.25.56-.56.56ZM1774.11,194.21h9.82v-4.56h-9.82v4.56Z"/>
      <path class="st21" d="M1777.04,195.33c-.31,0-.57-.26-.57-.56v-5.47c0-.31.26-.56.57-.56s.56.25.56.56v5.47c0,.31-.25.56-.56.56Z"/>
      <path class="st21" d="M1781.18,195.33c-.31,0-.56-.26-.56-.56v-5.47c0-.31.25-.56.56-.56s.56.25.56.56v5.47c0,.31-.25.56-.56.56Z"/>
      <path class="st21" d="M1784.49,192.49h-10.95c-.31,0-.56-.26-.56-.56s.25-.56.56-.56h10.95c.31,0,.56.26.56.56s-.25.56-.56.56Z"/>
      <path class="st21" d="M1760.18,163.04h-30.77c-.31,0-.56-.26-.56-.56v-9.25c0-.31.25-.56.56-.56h30.77c.3,0,.56.26.56.56v9.25c0,.31-.26.56-.56.56ZM1729.96,161.92h29.65v-8.12h-29.65v8.12Z"/>
      <path class="st21" d="M1760.18,115.79h-30.77c-.31,0-.56-.25-.56-.56v-9.25c0-.31.25-.56.56-.56h30.77c.3,0,.56.25.56.56v9.25c0,.31-.26.56-.56.56ZM1729.96,114.67h29.65v-8.12h-29.65v8.12Z"/>
      <path class="st21" d="M1762.53,101.62h-35.48c-.2,0-.38-.11-.49-.27-.1-.17-.11-.38-.02-.55l2.36-4.63c.1-.19.29-.31.5-.31h30.77c.21,0,.4.12.5.31l2.36,4.63c.09.17.08.38-.03.55-.1.17-.28.27-.48.27h.01ZM1727.97,100.5h33.65l-1.79-3.5h-30.08l-1.79,3.5h.01Z"/>
      <path class="st21" d="M1768.18,106.51h-46.88c-.3,0-.56-.26-.56-.56v-4.86c0-.31.26-.56.56-.56h46.88c.3,0,.56.25.56.56v4.86c0,.31-.26.56-.56.56ZM1721.87,105.39h45.74v-3.74h-45.74v3.74Z"/>
      <path class="st21" d="M1750.93,96.96h-12.34c-.3,0-.56-.25-.56-.56v-3.71c0-.31.26-.56.56-.56h12.34c.31,0,.56.26.56.56v3.71c0,.31-.25.56-.56.56ZM1739.16,95.84h11.21v-2.58h-11.21v2.58Z"/>
      <path class="st21" d="M1746.41,90.94h-3.23c-.31,0-.56-.26-.56-.56v-37.7c0-.31.25-.56.56-.56h3.23c.31,0,.57.26.57.56v37.7c0,.31-.26.56-.57.56ZM1743.74,89.82h2.11v-36.57h-2.11v36.57Z"/>
      <path class="st21" d="M1746.41,51.31h-3.23c-.31,0-.56-.26-.56-.56v-11.52c0-.31.25-.56.56-.56h3.23c.31,0,.57.26.57.56v11.52c0,.31-.26.56-.57.56ZM1743.74,50.18h2.11v-10.39h-2.11v10.39Z"/>
      <path class="st21" d="M1746.41,37.78h-3.23c-.31,0-.56-.26-.56-.56v-3.23c0-.31.25-.56.56-.56h3.23c.31,0,.57.26.57.56v3.23c0,.31-.26.56-.57.56ZM1743.74,36.65h2.11v-2.11h-2.11v2.11Z"/>
      <path class="st21" d="M1754.13,93.24h-18.79c-.3,0-.56-.26-.56-.56v-1.95c0-.31.26-.56.56-.56h18.79c.31,0,.57.26.57.56v1.95c0,.31-.26.56-.57.56ZM1735.91,92.12h17.66v-.83h-17.66v.83Z"/>
      <path class="st21" d="M1748.87,53.25h-8.37c-.31,0-.56-.26-.56-.56v-1.95c0-.31.25-.56.56-.56h8.37c.3,0,.56.25.56.56v1.95c0,.31-.26.56-.56.56ZM1741.07,52.12h7.24v-.83h-7.24v.83Z"/>
      <path class="st21" d="M1747.37,39.78h-5c-.31,0-.56-.26-.56-.56v-1.95c0-.31.25-.56.56-.56h5c.31,0,.57.26.57.56v1.95c0,.31-.26.56-.57.56ZM1742.94,38.66h3.88v-.83h-3.88v.83Z"/>
      <path class="st21" d="M1747.3,34.55h-5.01c-.3,0-.56-.26-.56-.56v-1.95c0-.31.26-.56.56-.56h5.01c.31,0,.56.26.56.56v1.95c0,.31-.25.56-.56.56ZM1742.86,33.43h3.88v-.83h-3.88v.83Z"/>
      <path class="st21" d="M1746.41,32.6h-3.23c-.31,0-.56-.26-.56-.56v-3.23c0-.31.25-.56.56-.56h3.23c.31,0,.57.26.57.56v3.23c0,.31-.26.56-.57.56ZM1743.74,31.48h2.11v-2.11h-2.11v2.11Z"/>
      <path class="st21" d="M1747.3,29.38h-5.01c-.3,0-.56-.26-.56-.56v-1.95c0-.31.26-.56.56-.56h5.01c.31,0,.56.26.56.56v1.95c0,.31-.25.56-.56.56ZM1742.86,28.25h3.88v-.83h-3.88v.83Z"/>
      <path class="st21" d="M1744.87,27.06c-.3,0-.56-.26-.56-.56v-8.93c0-.31.26-.56.56-.56s.57.26.57.56v8.93c0,.31-.26.56-.57.56Z"/>
      <path class="st21" d="M1710.54,163.04c-.09,0-.17-.01-.25-.06-.28-.13-.4-.47-.26-.75l9.83-20.26c.14-.28.48-.4.75-.26.28.13.4.47.27.75l-9.84,20.26c-.1.2-.3.32-.51.32h.01Z"/>
      <path class="st21" d="M1729.4,163.04c-.07,0-.13-.01-.2-.04-.29-.11-.44-.43-.32-.73l7.69-20.26c.11-.29.43-.44.73-.33.29.11.43.43.32.73l-7.69,20.26c-.09.23-.3.36-.53.36h0Z"/>
      <path class="st21" d="M1778.85,163.04c-.21,0-.42-.12-.51-.32l-9.84-20.26c-.14-.28-.02-.61.26-.75.29-.13.62-.02.75.26l9.84,20.26c.13.28.02.61-.26.75-.09.04-.17.06-.25.06h.01Z"/>
      <path class="st21" d="M1759.97,163.04c-.22,0-.44-.13-.52-.36l-7.69-20.26c-.12-.29.03-.61.32-.73.29-.11.61.04.73.33l7.69,20.26c.11.29-.04.61-.32.73-.07.02-.14.04-.21.04h0Z"/>
      <path class="st21" d="M1746.26,163.04c-.3,0-.56-.26-.56-.56v-20.26c0-.31.26-.56.56-.56s.57.26.57.56v20.26c0,.31-.26.56-.57.56Z"/>
      <path class="st21" d="M1750.93,438.08c-.31,0-.56-.26-.56-.56v-218.5c0-.12.04-.24.11-.34l11.6-15.71c.19-.25.53-.3.79-.12.25.19.3.54.12.79l-11.5,15.57v218.31c0,.31-.25.56-.56.56Z"/>
      <path class="st6" d="M1187.73,283.63l1.96-18.42h-12.47l-1.2,22.18,11.71-3.76Z"/>
      <path class="st5" d="M1189.08,284.68c-.07-.65-.62-1.14-1.27-1.16l-5.94-.14c-.12-1.23-1.16-2.21-2.45-2.21h-2.88c-1.19,0-2.21.84-2.43,2.01l-.39.19-4,1.85c-2.28.71-3.82,2.82-3.82,5.2h23.9l-.7-5.74h-.02Z"/>
      <path class="st6" d="M1165.66,291.72h24.12c.64,0,1.15-.52,1.15-1.15v-.05c0-.64-.51-1.15-1.15-1.15h-24.12c-.64,0-1.15.51-1.15,1.15v.05c0,.63.51,1.15,1.15,1.15Z"/>
      <path class="st6" d="M1222.86,283.67l-.75-18.24h-12.47l2.07,21.96,11.15-3.72Z"/>
      <path class="st6" d="M1180.39,199.49l-8.53,75.58c-.11,1.09.75,2.04,1.85,2.04h17.25c.91,0,1.69-.66,1.83-1.55l6.58-40.01,6.04,40.08c.12.85.86,1.49,1.72,1.49h17.96c1.02,0,1.83-.87,1.74-1.9l-6.41-75.72h-40.04.01Z"/>
      <path class="st5" d="M1224.77,284.68c-.07-.65-.62-1.14-1.27-1.16l-5.94-.14c-.13-1.23-1.16-2.21-2.45-2.21h-2.88c-1.19,0-2.21.84-2.43,2.01l-.4.19-4,1.85c-2.28.71-3.82,2.82-3.82,5.2h23.9l-.7-5.74h-.01Z"/>
      <path class="st6" d="M1201.34,291.72h24.13c.63,0,1.15-.52,1.15-1.15v-.05c0-.64-.52-1.15-1.15-1.15h-24.13c-.63,0-1.15.51-1.15,1.15v.05c0,.63.52,1.15,1.15,1.15Z"/>
      <path class="st3" d="M1205.42,275.62l-8.67-57.6"/>
      <path class="st4" d="M1241.55,171.04l-15.09-14.71c-2.39-2.33-5.5-3.8-8.81-4.16l-6.35-.7-9.13-2.62-10.08,1.37-46.17-30.03-7.72,13.38,42.01,31.13.49,14.73c.18,5.44-.13,10.89-1.08,16.26,0,.04-.01.08-.02.12-.42,2.33-.9,4.52-1.42,6.57-.29,1.14.44,2.27,1.6,2.49,4.54.86,9.62,1.55,15.18,1.87,9.88.57,18.58-.2,25.67-1.36.99-.16,1.67-1.07,1.55-2.05-.73-6.1-1.47-12.2-2.19-18.31l1.02-13.83,8.29,7.81-7.12,9.11,8.17,7.66,11.77-14.41c2.52-3.07,2.27-7.55-.57-10.32h0Z"/>
      <path class="st16" d="M1184.38,130.61c-.94-2.2-3.4-3.24-5.5-2.34-2.1.9-3.04,3.41-2.09,5.6.4.94,1.69,2.01,3.04,2.95,1.79,1.23,4.26.17,4.6-1.98"/>
      <path class="st3" d="M1184.38,130.61c-.94-2.2-3.4-3.24-5.5-2.34-2.1.9-3.04,3.41-2.09,5.6.4.94,1.69,2.01,3.04,2.95,1.79,1.23,4.26.17,4.6-1.98"/>
      <path class="st3" d="M1180.23,129.2l2.7,3.08"/>
      <path class="st3" d="M1181.1,130.19c-.08-.02-1.33-.21-2.18.72-.66.71-.63,1.59-.62,1.76"/>
      <path class="st19" d="M1236.77,124.81c-2.21,1.55-5.03,2.33-7.89,2.01-3.18-.36-6.19-1.91-8.98-4.6-.93-.9-1.75-1.83-2.47-2.66-.6-.69-1.18-1.35-1.73-1.89-.95-.92-1.56-1.17-1.72-1.19,0,0-.05.02-.07.04v.07c.47,3.41-1.92,6.54-5.33,7.01-3.41.47-6.56-1.93-7.03-5.34-.53-3.82.78-7.74,3.47-10.49,2.7-2.75,6.6-4.12,10.43-3.67,3.15.38,6.16,1.93,8.94,4.62.4.39.78.79,1.15,1.18,1.03-1.96,3.05-3.31,5.41-3.36,3.29-.06,6.5,1.58,8.39,4.28,1.89,2.71,2.31,6.28,1.11,9.36-.73,1.88-2.04,3.46-3.68,4.61v.03Z"/>
      <path class="st10" d="M1195.09,128.42h14.4l-.03,22.26c0,4.01-4.08,6.68-8.09,6.62l-3.8-.13c-3.94-.05-2.52-2.56-2.51-6.5l.03-22.23h0Z"/>
      <path class="st6" d="M1209.46,150.68l-8.09,6.62,3.08,3.97c.56.73,1.65.77,2.26.07l6.85-7.76c.51-.58.5-1.45-.03-2.01l-4.04-3.23v.93l-.03,1.41h0Z"/>
      <path class="st6" d="M1195.13,150.68l2.44,6.48-3.1,2.83c-.66.6-1.71.26-1.9-.61l-1.58-7.47c-.08-.4.05-.82.37-1.09l2.45-2.18,1.48.88-.16,1.15h0Z"/>
      <path class="st10" d="M1181.02,131.22c0,10.55,8.54,19.11,19.1,19.11s18.34-7.82,19.05-17.72c.04-.46.06-.92.06-1.39,0-10.55-8.56-19.12-19.11-19.12-9.92,0-18.08,7.57-19.01,17.25-.06.61-.09,1.23-.09,1.86Z"/>
      <path class="st19" d="M1188.62,131.43c-.04,1.29-1.11,2.32-2.4,2.28-1.3-.04-2.33-1.11-2.29-2.41.04-1.29,1.11-2.32,2.41-2.28,1.29.04,2.32,1.11,2.28,2.41Z"/>
      <path class="st19" d="M1200.06,131.72c-.03,1.29-1.11,2.32-2.4,2.28-1.3-.04-2.32-1.11-2.29-2.41.04-1.29,1.12-2.32,2.41-2.28,1.3.04,2.32,1.11,2.28,2.41Z"/>
      <path class="st16" d="M1191.38,130.8l-.78,1.62c-.37.75.18,1.62,1.01,1.62h.85"/>
      <path class="st3" d="M1191.38,130.8l-.78,1.62c-.37.75.18,1.62,1.01,1.62h.85"/>
      <path class="st16" d="M1215.16,131.32c1.03-2.4,3.72-3.54,6.02-2.55,2.29.99,3.31,3.72,2.28,6.12-.44,1.03-1.85,2.21-3.32,3.21-1.96,1.34-4.65.19-5.03-2.16"/>
      <path class="st3" d="M1215.16,131.32c1.03-2.4,3.72-3.54,6.02-2.55,2.29.99,3.31,3.72,2.28,6.12-.44,1.03-1.85,2.21-3.32,3.21-1.96,1.34-4.65.19-5.03-2.16"/>
      <path class="st3" d="M1219.69,129.79l-2.93,3.36"/>
      <path class="st3" d="M1218.75,130.86c.09-.02,1.46-.23,2.39.78.72.78.68,1.74.66,1.92"/>
      <path class="st19" d="M1188.03,125.8c-.81-1.06-2.72-1.1-3.51,0-.16.21-.11.5.09.65.16.12.35.12.51.03.4-.16.77-.29,1.15-.29.39-.02.81.12,1.21.31.42.21.85-.35.56-.71h-.01Z"/>
      <path class="st3" d="M1188.16,136.11c.8.32,2.1.72,3.73.71,1.49,0,2.74-.35,3.63-.69"/>
      <path class="st19" d="M1202.05,110.19c-4.11,0-7.93,1.37-10.98,3.69-1.86.27-3.96,1.08-5.97,2.41-4.5,2.99-6.79,7.46-5.11,9.99.34.51.82.9,1.4,1.17-.12.62-.22,1.27-.29,1.91.21-1.2.52-2.36.92-3.46.95-2.04,2.98-5.34,6.5-6.47.87,2.98,3.07,5.36,5.77,6.71,2.72,1.34,5.72,1.63,8.52,1.3.24-.03.42-.23.42-.47,0-.27-.21-.48-.47-.49-3.53.05-7.43-1.45-9.58-4.17,1.93,1.22,4.54,2.15,7.47,2.52,3.86.49,7.39-.08,9.73-1.35,1.52,2.45,2.49,5.24,2.8,8.15.11,1.03.94,1.81,1.96,1.84l.02-2.15c.73-1.68,2.27-2.73,3.91-2.89.4-.04.81-.02,1.21.06v-.08c0-10.06-8.16-18.22-18.23-18.22Z"/>
      <path class="st7" d="M1230.11,195.89c-.21.03-.51-.03-.88-.19-.04-.02-.07-.04-.12-.06-.17-.08-.34-.16-.53-.28-.15-.09-.33-.19-.5-.3-1.03-.68-2.27-1.72-3.4-2.92-.96-1.01-1.69-1.95-2.1-2.68-.1-.15-.18-.3-.23-.43-.04-.08-.07-.15-.1-.23-.04-.11-.06-.19-.08-.29-.07-.36.02-.59.32-.64.28-.05.71.1,1.25.37.05.02.11.06.17.09.12.07.26.14.39.23.04.02.08.05.12.08,1.07.68,2.35,1.74,3.52,2.98,1.07,1.12,1.85,2.16,2.21,2.93.03.05.05.1.07.14.05.09.08.15.11.22,0,.04.02.08.03.12.18.49.1.81-.25.86Z"/>
      <path class="st10" d="M1227.94,191.62c-1.17-1.24-2.45-2.3-3.52-2.98-.04-.03-.08-.06-.12-.08-.13-.09-.27-.16-.39-.23-.06-.03-.12-.07-.17-.09l-.43.61-.31.26-.42.35-.15.11-2.58-1.73c-.71-.49-1.53-.77-2.4-.8l-3.71-.15c-.9,0-1.67.66-1.76,1.52-.05.49.11.98.46,1.35.3.32.72.5,1.16.51l2.12.1-3.05,1.76s-.02,0-.03.02c-.8.47-1.09,1.44-.71,2.23.22.45.62.78,1.1.9.02.01.06.01.08.02-.11.37-.07.8.1,1.16.02.03.04.07.07.1.22.39.61.68,1.05.8.13.03.27.05.41.05.3,0,.58-.09.84-.23l3.51-2.02h.21l-2.72,2.01c-.27.2-.47.46-.58.75,0,.02,0,.04-.02.06-.15.39-.15.82.03,1.21,0,.02.02.05.03.07.02.06.05.11.08.15.26.4.67.67,1.15.74h.22c.35,0,.68-.11.96-.32l2.93-2.15.03.06c.71,1.13,1.94,1.79,3.28,1.79,1.25,0,2.36-.59,3.04-1.62.06-.1.12-.2.19-.32l.83-1.59,1.4-1.46c-.36-.77-1.14-1.8-2.21-2.92h0Z"/>
      <path class="st16" d="M1212.58,192.18l3.17-1.82c.33-.19.69-.34,1.05-.43.4-.1.82-.15,1.24-.13l1.48.06"/>
      <path class="st3" d="M1212.58,192.18l3.17-1.82c.33-.19.69-.34,1.05-.43.4-.1.82-.15,1.24-.13l1.48.06"/>
      <path class="st16" d="M1213.28,196.57c-.21-.42-.16-.9.06-1.29.12-.24.33-.44.57-.58l3.17-1.82c.69-.4,1.49-.59,2.29-.57l1.02.04,1.58.07.37.02"/>
      <path class="st3" d="M1213.28,196.57c-.21-.42-.16-.9.06-1.29.12-.24.33-.44.57-.58l3.17-1.82c.69-.4,1.49-.59,2.29-.57l1.02.04,1.58.07.37.02"/>
      <path class="st16" d="M1216.04,199.25c-.38-.6-.18-1.41.4-1.84l2.8-2.06c.61-.45,1.34-.72,2.11-.78l1.7-.12"/>
      <path class="st3" d="M1216.04,199.25c-.38-.6-.18-1.41.4-1.84l2.8-2.06c.61-.45,1.34-.72,2.11-.78l1.7-.12"/>
      <path class="st3" d="M1223.19,197.11l-1.81.58"/>
      <path class="st7" d="M1146.3,122.49c-.28,1.49-1.07,3.48-2.26,5.54-1.25,2.18-2.68,3.93-3.87,4.86-.83.67-1.53.93-1.98.67-.26-.15-.42-.47-.47-.92-.15-1.42.72-4.11,2.34-6.92,1.45-2.5,3.12-4.45,4.39-5.25.6-.38,1.11-.5,1.46-.3.49.28.6,1.12.39,2.3Z"/>
      <path class="st10" d="M1144.45,120.49l-4.84-5.24c-.55-.52-1.2-.91-1.91-1.16l-2.17-.76-6.83-3.7c-.8-.41-1.7-.24-2.3.51-.17.22-.29.48-.35.75-.17.79.11,1.49.78,1.92l4.5,3.27v.02s-.02,0-.03.02l-3.11,1.87c-.19.11-.36.26-.49.41h-.01s-.05.08-.08.11v.02s0,.02-.02.03c-.01,0-.02.02-.02.04v.02s-.04.07-.06.1c-.03.05-.06.1-.08.14v.02s-.02.04-.03.06c-.01.02-.02.04-.03.07,0,0-.01.03-.01.04v.04s-.02.07-.03.11v.07s-.01.09-.02.12v.11s-.01.03-.01.04v.11c-.62.42-.94,1.11-.9,1.81-.44.56-.52,1.33-.16,1.99l1.35,2.39c.3.52.85.8,1.4.75h.06c.06,0,.12-.02.18-.04l.02.02,3.68,4.34c1.21,1.44,3.09,2.08,4.89,1.76.45-.08.89-.21,1.32-.41l1.12.66c1.19-.93,2.62-2.68,3.88-4.86,1.19-2.06,1.97-4.06,2.25-5.54l-1.85-2.01h-.09ZM1128.43,124.96l.03.06s-.05-.03-.03-.06Z"/>
      <path class="st16" d="M1128.89,126.59c.22,0,.43-.06.64-.14.05-.02.1-.05.14-.07l.05-.03c.78-.47,1.04-1.47.59-2.26l-.88-1.56,2-1.2"/>
      <path class="st3" d="M1128.89,126.59c.22,0,.43-.06.64-.14.05-.02.1-.05.14-.07l.05-.03c.78-.47,1.04-1.47.59-2.26l-.88-1.56,2-1.2"/>
      <path class="st16" d="M1131.3,116.11l-3.12,1.87c-.95.57-1.26,1.77-.72,2.72l1.52,2.69c.44.76,1.36,1.06,2.15.71.05-.02.1-.05.15-.07l.04-.03c.78-.47,1.04-1.47.59-2.26l-.88-1.56,2.1-1.27"/>
      <path class="st3" d="M1131.3,116.11l-3.12,1.87c-.95.57-1.26,1.77-.72,2.72l1.52,2.69c.44.76,1.36,1.06,2.15.71.05-.02.1-.05.15-.07l.04-.03c.78-.47,1.04-1.47.59-2.26l-.88-1.56,2.1-1.27"/>
      <path class="st3" d="M1131.32,116.09l3.01,1.97"/>
      <path class="st3" d="M1130.29,119.47l.74.73"/>
      <path class="st16" d="M1127.2,119.64s-.02,0-.03.02c-.03.02-.06.04-.08.07-.04.03-.08.06-.12.1-.03.02-.05.05-.08.07-.03.03-.05.06-.08.1,0,0-.04.05-.05.07-.02.02-.04.05-.05.07-.04.05-.07.09-.09.13-.02.02-.03.05-.05.07h0c-.03.06-.05.11-.08.15-.03.06-.05.11-.07.16-.01.03-.03.07-.04.11h0s0,.04-.01.07c-.01.04-.02.09-.03.12-.01.03-.02.06-.02.09h0s0,.09-.02.13v.29c.02.3.1.59.26.86l1.52,2.69c.41.72,1.26,1.04,2.03.76.03-.02.08-.03.13-.05.05-.02.1-.05.13-.07l.05-.03s.09-.06.14-.09c.04-.03.08-.07.12-.1.04-.03.07-.07.1-.11.1-.11.19-.23.26-.36.14-.28.21-.58.19-.9"/>
      <path class="st3" d="M1127.2,119.64s-.02,0-.03.02c-.03.02-.06.04-.08.07-.04.03-.08.06-.12.1-.03.02-.05.05-.08.07-.03.03-.05.06-.08.1,0,0-.04.05-.05.07-.02.02-.04.05-.05.07-.04.05-.07.09-.09.13-.02.02-.03.05-.05.07h0c-.03.06-.05.11-.08.15-.03.06-.05.11-.07.16-.01.03-.03.07-.04.11h0s0,.04-.01.07c-.01.04-.02.09-.03.12-.01.03-.02.06-.02.09h0s0,.09-.02.13v.29c.02.3.1.59.26.86l1.52,2.69c.41.72,1.26,1.04,2.03.76.03-.02.08-.03.13-.05.05-.02.1-.05.13-.07l.05-.03s.09-.06.14-.09c.04-.03.08-.07.12-.1.04-.03.07-.07.1-.11.1-.11.19-.23.26-.36.14-.28.21-.58.19-.9"/>
      <path class="st16" d="M1127.69,118.4s-.07.08-.1.12c-.02.03-.04.05-.05.09-.03.03-.05.07-.07.11-.03.05-.05.1-.08.14,0,0,0,0-.01.02-.02.05-.05.1-.06.16h0s-.03.09-.04.12c-.01.03-.02.05-.02.08v.02s-.02.09-.03.12c0,.05-.01.09-.02.13v.12c-.02.36.07.73.26,1.07l1.52,2.7c.44.76,1.36,1.06,2.15.71.03-.02.07-.03.1-.05.02,0,.03-.02.05-.03l.04-.03c.78-.48,1.04-1.47.59-2.26l-.44-.78"/>
      <path class="st3" d="M1127.69,118.4s-.07.08-.1.12c-.02.03-.04.05-.05.09-.03.03-.05.07-.07.11-.03.05-.05.1-.08.14,0,0,0,0-.01.02-.02.05-.05.1-.06.16h0s-.03.09-.04.12c-.01.03-.02.05-.02.08v.02s-.02.09-.03.12c0,.05-.01.09-.02.13v.12c-.02.36.07.73.26,1.07l1.52,2.7c.44.76,1.36,1.06,2.15.71.03-.02.07-.03.1-.05.02,0,.03-.02.05-.03l.04-.03c.78-.48,1.04-1.47.59-2.26l-.44-.78"/>
      <path class="st16" d="M1135.24,120.39l-5.71.41c-.33.03-.66.13-.95.31-.68.42-1.07,1.17-1.02,1.98.04.57.3,1.08.73,1.46.44.37.98.56,1.55.52l4.83-.35"/>
      <path class="st3" d="M1135.24,120.39l-5.71.41c-.33.03-.66.13-.95.31-.68.42-1.07,1.17-1.02,1.98.04.57.3,1.08.73,1.46.44.37.98.56,1.55.52l4.83-.35"/>
      <path class="st3" d="M1134.33,120.46l1.59-2.79"/>
      <path class="st6" d="M1199.19,161c.65,0,1.18-.53,1.18-1.18s-.53-1.18-1.18-1.18-1.18.53-1.18,1.18.53,1.18,1.18,1.18Z"/>
      <path class="st6" d="M1200.37,163.2c0,.65-.53,1.18-1.18,1.18s-1.18-.53-1.18-1.18.53-1.18,1.18-1.18,1.18.53,1.18,1.18Z"/>
      <path class="st10" d="M554.55,459.66l-2.04-19.21h13l1.25,23.13-12.21-3.92Z"/>
      <path class="st7" d="M573.34,461.31l-4.17-1.93-.41-.2c-.23-1.22-1.29-2.1-2.53-2.1h-3.01c-1.34,0-2.42,1.02-2.55,2.3l-6.19.15c-.68.02-1.25.53-1.33,1.21l-.73,5.98h24.92c0-2.48-1.61-4.68-3.98-5.42h-.02Z"/>
      <path class="st6" d="M577.56,465.65h-25.15c-.66,0-1.2.54-1.2,1.2v.05c0,.66.54,1.2,1.2,1.2h25.15c.66,0,1.2-.54,1.2-1.2v-.05c0-.66-.54-1.2-1.2-1.2Z"/>
      <path class="st10" d="M517.92,459.7l.79-19.02h13l-2.16,22.9-11.63-3.88Z"/>
      <path class="st6" d="M571.21,454.14l-8.76-89.78h-41.16l-7.55,89.13c-.07.88.62,1.63,1.5,1.63h19.34c.75,0,1.38-.55,1.49-1.28l6.33-42.07,7.01,42.6c.07.43.44.75.88.75h20.04c.53,0,.94-.45.89-.98h-.01Z"/>
      <path class="st7" d="M520.14,375.77h44.14c.81,0,1.45-.68,1.4-1.48-.37-6.15-.57-15.65-.54-21.9.02-4.4.16-8.64.39-12.71,3.78,4.93,7.56,9.85,11.34,14.78,5.51,7.18,16.89,4.66,18.85-4.18l4.03-21.25-15.13-4.21-2.06,9.19-10.74-15.2c-2.5-3.54-6.1-6.17-10.25-7.42-4.53-1.36-9.76-2.61-12.71-2.61l-12.02,2.19c-2.03,0-11.32-.09-13.3.25v.03c-4.23.22-8.09,2.82-9.75,7.01-1.28,3.23-.85,6.89.89,9.89l5.81,10.01c.19,6.31.17,13.06-.14,20.21-.31,6.98-.86,10.21-1.58,15.8-.11.84.55,1.59,1.39,1.59h-.02Z"/>
      <path class="st16" d="M560.38,292.57c.98-2.29,3.55-3.38,5.74-2.44s3.17,3.56,2.18,5.84c-.42.98-1.77,2.1-3.17,3.07-1.87,1.28-4.44.18-4.8-2.06"/>
      <path class="st3" d="M560.38,292.57c.98-2.29,3.55-3.38,5.74-2.44s3.17,3.56,2.18,5.84c-.42.98-1.77,2.1-3.17,3.07-1.87,1.28-4.44.18-4.8-2.06"/>
      <path class="st3" d="M564.71,291.1l-2.8,3.21"/>
      <path class="st3" d="M563.81,292.13c.09-.02,1.39-.22,2.28.75.68.74.65,1.66.64,1.83"/>
      <path class="st3" d="M565.54,339.68l.5-10.76"/>
      <path class="st10" d="M550.99,288.25h-15.02l.03,23.21c0,4.18,4.26,6.96,8.44,6.9l3.96-.14c4.11-.05,2.63-2.67,2.62-6.78l-.03-23.18h0Z"/>
      <path class="st6" d="M536.01,311.46l8.44,6.9-3.21,4.14c-.59.76-1.72.8-2.36.07l-7.14-8.09c-.53-.6-.52-1.51.03-2.1l2.86-3.04,1.54.92-.16,1.2Z"/>
      <path class="st6" d="M550.94,311.46l-2.54,6.76,4.78,4.37,2.38-10.15-3.24-3.1-1.54.92.16,1.2Z"/>
      <path class="st10" d="M563.85,291.91c0,11-8.91,19.92-19.92,19.92s-19.12-8.15-19.86-18.47c-.04-.48-.06-.96-.06-1.45,0-11,8.92-19.93,19.92-19.93,10.35,0,18.85,7.89,19.82,17.99.07.64.1,1.28.1,1.94Z"/>
      <path class="st19" d="M554.59,292.22c0,1.35,1.1,2.45,2.45,2.45s2.45-1.1,2.45-2.45-1.1-2.45-2.45-2.45-2.45,1.1-2.45,2.45Z"/>
      <path class="st19" d="M541.48,292.22c0,1.35,1.1,2.45,2.45,2.45s2.45-1.1,2.45-2.45-1.1-2.45-2.45-2.45-2.45,1.1-2.45,2.45Z"/>
      <path class="st16" d="M551.39,291.48l.81,1.69c.38.78-.19,1.69-1.06,1.69h-.88"/>
      <path class="st3" d="M551.39,291.48l.81,1.69c.38.78-.19,1.69-1.06,1.69h-.88"/>
      <path class="st6" d="M544.5,296.69c-.35,0-.64.31-.6.66.33,2.78,2.69,4.93,5.55,4.93s5.23-2.15,5.55-4.93c.04-.35-.24-.66-.6-.66h-9.91,0Z"/>
      <path class="st16" d="M528.25,292.03c-1.07-2.5-3.88-3.69-6.27-2.66s-3.46,3.88-2.38,6.38c.46,1.07,1.93,2.3,3.46,3.35,2.04,1.4,4.85.2,5.24-2.25"/>
      <path class="st3" d="M528.25,292.03c-1.07-2.5-3.88-3.69-6.27-2.66s-3.46,3.88-2.38,6.38c.46,1.07,1.93,2.3,3.46,3.35,2.04,1.4,4.85.2,5.24-2.25"/>
      <path class="st3" d="M523.52,290.42l3.06,3.51"/>
      <path class="st3" d="M524.51,291.55c-.1-.02-1.52-.24-2.49.81-.75.81-.71,1.81-.69,2"/>
      <path class="st19" d="M559.6,276.36c-2.11-1.39-4.31-2.24-6.27-2.52-3.18-2.4-7.12-3.84-11.41-3.84-10.49,0-19,8.51-19,19v.08c.43-.08.88-.1,1.31-.06,1.69.18,3.28,1.29,4.02,3.01l.02,2.83h1.93v-.31c0-2.67.52-5.29,1.5-7.7.04.09.08.19.13.28,1.78,3.18,8.03,3.06,13.95-.26,3.77-2.11,6.49-5.01,7.52-7.66.84,0,1.58.09,2.2.25,3.98.99,6.24,4.64,7.28,6.87.43,1.17.76,2.39.98,3.66-.07-.68-.17-1.36-.31-2.02h0s0-.01,0-.01c.61-.27,1.11-.68,1.47-1.21,1.74-2.62-.64-7.28-5.33-10.4h.01Z"/>
      <path class="st19" d="M555.44,287.9c.84-1.11,2.83-1.15,3.66,0,.16.22.11.52-.1.68-.16.12-.36.12-.53.03-.42-.17-.8-.3-1.2-.3-.4-.02-.84.13-1.26.32-.44.22-.89-.37-.58-.74h0Z"/>
      <path class="st19" d="M532.86,321.99l8.25,15.06,5.53-15.07,14.59,4.19-9.41,27.69c-3.26,9.41-16.07,10.65-21.07,2.03l-16.25-28.02c-2.3-3.96-1.92-8.93.95-12.51"/>
      <path class="st3" d="M532.86,321.99l8.25,15.06,5.53-15.07,14.59,4.19-9.41,27.69c-3.26,9.41-16.07,10.65-21.07,2.03l-16.25-28.02c-2.3-3.96-1.92-8.93.95-12.51"/>
      <path class="st3" d="M541.11,337.05l-1.95,5.95"/>
      <path class="st3" d="M582.55,334.01l-2.54,9.77"/>
      <path class="st7" d="M536.13,461.31l-4.17-1.93-.41-.2c-.23-1.22-1.29-2.1-2.53-2.1h-3.01c-1.34,0-2.42,1.02-2.55,2.3l-6.19.15c-.68.02-1.25.53-1.33,1.21l-.73,5.98h24.92c0-2.48-1.61-4.68-3.98-5.42h-.02Z"/>
      <path class="st6" d="M540.36,465.65h-25.15c-.66,0-1.2.54-1.2,1.2v.05c0,.66.54,1.2,1.2,1.2h25.15c.66,0,1.2-.54,1.2-1.2v-.05c0-.66-.54-1.2-1.2-1.2Z"/>
      <path class="st3" d="M536.13,453.43l10.06-66.85"/>
      <path class="st9" d="M599.74,329.03c-.25.62-1.32.94-2.82.96h-.38c-.2,0-.42,0-.64-.02-1.38-.08-3-.34-4.69-.81-2.26-.63-4.16-1.49-5.35-2.34-.07-.05-.12-.09-.18-.14-.06-.05-.12-.08-.17-.13-.77-.62-1.13-1.25-.9-1.74.11-.25.34-.45.69-.6.05-.03.1-.04.16-.06.26-.1.58-.17.95-.22,1.62-.23,4.11.02,6.75.75,2.75.76,4.98,1.88,6.02,2.89.04.04.07.07.11.11.06.06.12.12.17.19.34.41.46.81.3,1.15h-.02Z"/>
      <path class="st10" d="M601.4,318.06l-1.42,8.39c-.09.52-.28,1.01-.55,1.43-.18.29-.39.54-.63.77-.42.39-.93.69-1.51.87l-.6.17-.15.31c-.2,0-.42-.01-.64-.02-1.38-.08-3-.34-4.69-.81-2.26-.63-4.16-1.49-5.35-2.34-.07-.05-.12-.09-.18-.14s-.12-.08-.17-.13l.36-1.21-.43-1.19-.16-.47-.63-1.78c-.52-1.46-.24-3.09.72-4.29l4.56-5.7,11.46,6.13h.01Z"/>
      <path class="st5" d="M573.81,322.1l-15.62-4.36c-2.33-.65-3.83-2.9-3.54-5.3.29-2.41,2.29-4.24,4.71-4.31l16.5-.51-2.05,14.49h0Z"/>
      <path class="st5" d="M594.42,324.55l-15.62-4.36c-2.33-.65-3.83-2.9-3.54-5.3.29-2.41,2.29-4.24,4.71-4.31l16.5-.51-2.04,14.49h-.01Z"/>
      <path class="st5" d="M598.39,310.41c-2.64-.82-5.26-.11-7.08,1.51-1.31,1.16-3.06,1.57-4.79,1.29h-.08c-2.05-.3-3.95-1.22-5.24-2.84-1.41-1.78-3.65-2.9-6.23-2.75-2.94.18-5.55,2.2-6.45,5-1.46,4.55,1.59,9.05,6.09,9.58,3.33.4,6.39-1.5,7.62-4.45.59-1.41,1.93-2.44,3.46-2.38.15,0,.3.02.44.04h.04c1.48.25,2.53,1.55,2.74,3.03.47,3.19,3.02,5.81,6.38,6.21,4.49.54,8.52-3.12,8.17-7.88-.22-2.93-2.27-5.5-5.08-6.37h.01Z"/>
      <path class="st8" d="M600.78,317.94c-.3,2.55-2.61,4.36-5.16,4.06-2.55-.3-4.36-2.61-4.06-5.16.3-2.55,2.61-4.36,5.16-4.06s4.36,2.61,4.06,5.16Z"/>
      <path class="st8" d="M580.1,315.47c-.3,2.55-2.61,4.36-5.16,4.06-2.55-.3-4.36-2.61-4.06-5.16.3-2.55,2.61-4.36,5.16-4.06s4.36,2.61,4.06,5.16Z"/>
      <path class="st10" d="M587.3,311.27l-.9.06c-.78.05-1.46-.54-1.51-1.32s.54-1.46,1.32-1.51l.9-.06c.78-.05,1.46.54,1.51,1.32.05.78-.54,1.46-1.32,1.51Z"/>
      <path class="st10" d="M590.24,311.07l-.9.06c-.78.05-1.46-.54-1.51-1.32s.54-1.46,1.32-1.51l.9-.06c.78-.05,1.46.54,1.51,1.32.05.78-.54,1.46-1.32,1.51Z"/>
      <path class="st10" d="M593.18,310.86l-.9.06c-.78.05-1.46-.54-1.51-1.32s.54-1.46,1.32-1.51l.9-.06c.78-.05,1.46.54,1.51,1.32.05.78-.54,1.46-1.32,1.51Z"/>
      <path class="st10" d="M596.11,310.66l-.9.06c-.78.05-1.46-.54-1.51-1.32s.54-1.46,1.32-1.51l.9-.06c.78-.05,1.46.54,1.51,1.32.05.78-.54,1.46-1.32,1.51Z"/>
      <path class="st9" d="M561.22,326.17c-.31,1.11-1.76,1.77-3.74,1.86-1.33.06-2.9-.12-4.52-.59-2.18-.62-4-1.63-5.14-2.71-.96-.92-1.43-1.9-1.18-2.76.2-.69.83-1.19,1.75-1.5,1.57-.54,3.97-.5,6.52.23,2.65.76,4.79,2.08,5.78,3.43.52.69.72,1.39.54,2.03h-.01Z"/>
      <path class="st10" d="M568.02,309.4s-.03.09-.05.13c-.03.06-.06.12-.09.18-.04.07-.09.13-.13.2l-.03.02c-.07.09-.14.16-.22.23-.08.07-.17.13-.25.18-.02.02-.03.03-.05.03-.09.05-.19.1-.29.13-.11.03-.21.07-.33.09l-.66.13c.16.09.3.19.43.3.04.04.08.08.12.12.03.04.07.09.1.13.1.14.17.3.22.46.14.47.08.97-.17,1.39-.25.41-.67.7-1.14.8l-2.92.57-.58.28-2.05.98.65,2.66.45,1.83c.34,1.35.2,2.71-.32,3.91-.57,1.31-1.59,2.42-2.95,3.08l-.25.81c-1.33.06-2.9-.12-4.52-.59-2.18-.62-4-1.63-5.14-2.71l.41-.83.15-3.42.32-7.22c.05-1.15.6-2.23,1.52-2.93l4.84-3.72,2.56-1.97c.25-.22.54-.39.84-.53l2.94-1.26c.36-.15.76-.2,1.15-.13.55.1,1.01.43,1.26.9.11.19.17.41.2.62l1.89-.49c.38-.1.79-.08,1.16.05.46.17.83.49,1.03.9.03.06.06.12.08.18.08.21.11.42.11.63,0,.29-.07.59-.21.86-.04.09-.1.18-.16.26-.12.16-.27.29-.43.41-.08.05-.17.11-.26.14.04.02.08.05.12.07.02,0,.04,0,.05.04.08.06.15.11.22.18.05.05.1.09.14.15.03.03.06.06.08.1.04.06.08.12.12.19.05.1.09.21.13.31.12.4.1.81-.04,1.18h-.05Z"/>
      <path class="st3" d="M567.22,307.19c.36-.17.67-.45.86-.81.25-.46.28-.99.1-1.49-.18-.5-.59-.9-1.11-1.08-.37-.13-.77-.15-1.16-.05l-1.9.49-2.9.75c-.56.14-1.08.4-1.53.74l-6.33,4.83"/>
      <path class="st3" d="M565.91,310.71l.75-.15c.51-.1.96-.41,1.22-.85.27-.45.34-.98.18-1.48-.13-.44-.42-.81-.83-1.03-.07-.04-.14-.07-.22-.1-.37-.16-.76-.19-1.16-.12l-3.13.62c-.32.06-.63.17-.92.33l-7.42,4.49"/>
      <path class="st3" d="M555.73,314.63l5.18-3.19c.28-.15.57-.25.87-.31l2.93-.58c.36-.07.74-.03,1.08.11.48.2.84.59.98,1.07.14.48.08.97-.17,1.39-.25.41-.67.71-1.14.8l-2.92.58-4.63,2.22"/>
      <path class="st14" d="M564.14,319.39l-3.03-.79c-1.14-.3-2.06-1.15-2.45-2.27l3.3-1.58"/>
      <path class="st3" d="M564.14,319.39l-3.03-.79c-1.14-.3-2.06-1.15-2.45-2.27l3.3-1.58"/>
      <path class="st0" d="M561.22,326.17l-9.41,27.69c-3.26,9.41-16.07,10.65-21.07,2.03l-9.47-16.33"/>
      <path class="st0" d="M532.86,321.99l8.25,15.06,5.53-15.07"/>
      <path class="st0" d="M541.11,337.05l-3.21,9.7"/>
      <path class="st0" d="M582.76,333.05l-2.99,12.3"/>
      <path class="st0" d="M565.54,339.68l.32-6.98"/>
      <g>
        <path class="st6" d="M1663.03,408.95l-.56-1.67-40.06,5.33c.35,1.83-1.02,5.47-1.72,7.2-2.4,5.99.27,12.81,6.09,15.59l59.61,29.26,9.18-20.43,15.25,5.62,8.54-18.53-56.34-22.37h.01Z"/>
        <path class="st3" d="M1696.05,443.18l-35.58-21.48"/>
        <path class="st7" d="M1699.06,456.75c-2.26,6.13-7.8,9.73-12.39,8.04-3.42-1.26-5.34-5.1-5.16-9.51v-.07c.07-1.49.37-3.04.94-4.58,1.02-2.77,2.72-5.03,4.69-6.51,2.39-1.79,5.19-2.46,7.7-1.53,4.59,1.69,6.48,8.03,4.22,14.16Z"/>
        <path class="st10" d="M1608.51,412.18l-10.8-3.62-7.36,24.27-4.19,1.14-8.49.96c-.94.11-1.65.82-1.81,1.7l-1.06.12c-1.11.12-1.9,1.09-1.84,2.19-.74.51-1.12,1.45-.79,2.42.32.93,1.3,1.46,2.27,1.35l.75-.08c.28.95,1.21,1.59,2.23,1.48l6.81-.77c-.33.64-.33,1.43.09,2.07.62.95,1.9,1.22,2.85.6l5.59-3.65,5.62-.65c2.61-.3,4.15-3.08,3.02-5.45l7.1-24.07h.01Z"/>
        <path class="st3" d="M1586.62,435.41l-10.75,1.21-1.05.12c-1.11.12-1.92,1.09-1.84,2.19"/>
        <path class="st3" d="M1575.21,442.62l-.83.09c-1.15.13-2.18-.69-2.31-1.83-.09-.8.28-1.54.89-1.95.28-.2.59-.32.94-.36l2.39-.28,10.77-1.21"/>
        <path class="st3" d="M1577.43,444.1c-1.14.13-2.17-.69-2.3-1.84-.13-1.14.69-2.18,1.84-2.3l10.41-1.18"/>
        <path class="st16" d="M1592.76,442.35l-5.59,3.65c-.95.62-2.23.35-2.85-.6s-.35-2.23.6-2.85l3.54-2.32"/>
        <path class="st3" d="M1592.76,442.35l-5.59,3.65c-.95.62-2.23.35-2.85-.6s-.35-2.23.6-2.85l3.54-2.32"/>
        <path class="st4" d="M1618.25,389.15c.86,11.87,1.94,18.51,2.8,30.39,7.02.99,21.21,1.89,35.3-5.77,3.52-1.91,6.49-4.06,8.96-6.19l-1.38-15.62,18.77,5.98,8.69-12.15-17.26-9.89-10.89-19.22c-1.8-3.18-5-5.33-8.63-5.8l-20.81-2.7-21.37,12.29c-4.11,2.37-7,6.4-7.9,11.06l-5.75,29.69-8.58,27.68c-.2.66.2,1.35.87,1.5l11.73,2.63c.59.13,1.18-.2,1.37-.77l7.89-20.67c1.02-2.67,1.88-5.39,2.58-8.15l3.63-14.28h-.02Z"/>
        <path class="st16" d="M1651.46,327.05c-.06-2.72,1.99-4.97,4.59-5.03s4.76,2.09,4.82,4.81c.03,1.17-.8,2.89-1.75,4.48-1.27,2.13-4.32,2.2-5.7.14"/>
        <path class="st3" d="M1651.46,327.05c-.06-2.72,1.99-4.97,4.59-5.03s4.76,2.09,4.82,4.81c.03,1.17-.8,2.89-1.75,4.48-1.27,2.13-4.32,2.2-5.7.14"/>
        <path class="st3" d="M1655.09,323.62l-1.32,4.46"/>
        <path class="st3" d="M1654.67,325.06c.09-.06,1.28-.85,2.6-.3,1.02.43,1.39,1.35,1.46,1.53"/>
        <path class="st10" d="M1642.57,328.7h-15.02l.03,23.21c0,4.18,4.26,6.96,8.44,6.9l3.96-.14c4.11-.05,2.63-2.67,2.62-6.78l-.03-23.18h0Z"/>
        <path class="st6" d="M1627.58,351.91l8.44,6.9-3.21,4.14c-.59.76-1.72.8-2.36.07l-6.97-7.35c-.47-.5-.42-1.29.1-1.72l3.99-3.34v1.29h.01Z"/>
        <path class="st6" d="M1642.57,351.28l-2.59,7.39,3.88,2.4c.5.31,1.3-.14,1.44-.8l1.81-8.3c.09-.43-.07-.82-.42-.98l-4.1-1.9-.03,2.2h.01Z"/>
        <path class="st10" d="M1655.71,324.77c4.55,10.01.13,21.82-9.89,26.38-9.57,4.35-20.78.5-25.72-8.59-.24-.42-.45-.85-.65-1.3-4.56-10.02-.13-21.83,9.88-26.39,9.42-4.28,20.43-.62,25.49,8.17.33.56.62,1.13.89,1.72h0Z"/>
        <path class="st19" d="M1648.31,330.86c.51,1.25,1.94,1.85,3.19,1.33,1.25-.51,1.85-1.94,1.33-3.19-.51-1.25-1.94-1.85-3.19-1.33-1.25.51-1.85,1.94-1.33,3.19Z"/>
        <path class="st19" d="M1636.52,335.33c.51,1.25,1.94,1.85,3.19,1.33,1.25-.52,1.85-1.94,1.33-3.19-.51-1.25-1.94-1.85-3.19-1.33-1.25.51-1.85,1.94-1.33,3.19Z"/>
        <path class="st16" d="M1645.07,331.39l1.39,1.25c.65.58.46,1.64-.34,1.97l-.81.33"/>
        <path class="st3" d="M1645.07,331.39l1.39,1.25c.65.58.46,1.64-.34,1.97l-.81.33"/>
        <path class="st6" d="M1641.92,338.34c-.33.13-.47.53-.3.84,1.36,2.45,4.36,3.54,7.01,2.45,2.65-1.09,4.02-3.98,3.26-6.67-.1-.34-.47-.52-.8-.38l-9.17,3.77h0Z"/>
        <path class="st16" d="M1623.35,339.62c-2.01-1.83-5.06-1.75-6.81.17-1.75,1.92-1.54,4.96.47,6.79.86.79,2.71,1.29,4.54,1.61,2.44.43,4.49-1.83,3.83-4.21"/>
        <path class="st3" d="M1623.35,339.62c-2.01-1.83-5.06-1.75-6.81.17-1.75,1.92-1.54,4.96.47,6.79.86.79,2.71,1.29,4.54,1.61,2.44.43,4.49-1.83,3.83-4.21"/>
        <path class="st3" d="M1618.38,340.11l4.23,1.92"/>
        <path class="st3" d="M1619.74,340.73c-.1.03-1.48.41-1.93,1.77-.34,1.05.11,1.94.19,2.1"/>
        <path class="st19" d="M1646.84,325.34c.35-1.35,2.18-2.14,3.39-1.39.23.14.3.44.16.67-.1.17-.29.25-.47.23-.46,0-.86.02-1.22.18-.38.14-.73.44-1.04.77-.33.37-.96,0-.81-.46h-.01Z"/>
        <path class="st19" d="M1634.93,329.94c.35-1.35,2.18-2.14,3.39-1.39.23.14.3.44.16.67-.1.17-.29.25-.47.23-.46,0-.86.02-1.22.18-.38.14-.73.44-1.04.77-.33.37-.96,0-.81-.46h-.01Z"/>
        <path class="st19" d="M1655.05,323.42l-4.13-9.06c1.03-2.13,1.42-4.53.98-6.82-.29-1.5-1.82-2.42-3.28-1.97l-.3.09c-.86.26-1.47.97-1.74,1.82-.39,1.28-1.33,2.34-2.42,2.79-.02-.19-.03-.38-.06-.57-.24-1.54-1.77-2.53-3.28-2.12l-.31.08c-.88.24-1.52.94-1.82,1.8-.28.81-.77,1.52-1.39,2.05-2.84-.25-5.78.11-8.63,1.17-10.22,3.82-15.42,15.2-11.6,25.43.12.31.24.63.37.93.32-.2.67-.36,1.03-.48v-.02c1.61-.54,3.49-.19,4.88,1.08l1.09,2.34c.91-.66,1.27-1.86.91-2.95-.83-2.5-1.15-5.12-.97-7.71.14-1.98,1.43-3.69,3.24-4.52l15.54-7.07,2.42-1.1c.79-.28,1.62-.42,2.44-.41,1.15,0,2.28.33,3.28.98.03.02.06.05.1.07.19.13.37.26.54.4,1.06,1.01,2.03,2.14,2.88,3.4-.28-.49-.58-.96-.9-1.42.53.68.89,1.32,1.13,1.79Z"/>
        <path class="st7" d="M1676.77,392.54c1.62,4.47,6.55,6.78,11.02,5.16,4.47-1.62,6.78-6.55,5.16-11.02s-6.55-6.78-11.02-5.16-6.78,6.55-5.16,11.02Z"/>
        <path class="st6" d="M1682.84,372.81l15.41-9.44-3.61-2.16c-4.38,2.87-9.79,6.86-12.82,11.44-6.7-.95-15.87-1.55-24.39-.2l-17.63,33.34,2.57,2.42,18.83-30.77,19.87-3.58s-.02.04-.03.05l.11-.07c-.63-.14,2.34-.92,1.68-1.03h.01Z"/>
        <path class="st1" d="M1698.22,361.96l-16.02,10.82-24.29,4.38-16.45,31.05,1.02.74,26.65-6.77,17.47-11.38,12.65-28.1-1.03-.74Z"/>
        <path class="st3" d="M1699.25,362.7l-16.03,10.82-24.28,4.38-15.64,29.69"/>
        <path class="st3" d="M1683.22,373.52l-14.09,28.66"/>
        <path class="st10" d="M1692.64,382.38c-.23-.77-.75-1.43-1.41-1.9l-1.78,3.73-2.01-1.16-4.34-4.02c-.41-.38-.96-.57-1.52-.52-.48.04-.93.26-1.27.61-.36.38-.55.88-.53,1.41s.24,1.01.62,1.37l.45.38-3.04-1.67c-.34-.19-.73-.27-1.12-.24-.87.08-1.61.71-1.77,1.63-.15.84.31,1.67,1.06,2.08l4.05,2.23-.04.04-4.77-1.86c-.33-.12-.68-.15-1.02-.09-.69.12-1.27.61-1.5,1.27-.18.5-.16,1.03.07,1.5.22.48.62.84,1.11,1.02l2.27.96-1.03-.05h-.22c-.72.05-1.38.56-1.58,1.25-.19.64-.04,1.3.39,1.77.33.36.77.57,1.25.59l5.02.23,2.13,2.59c1.34,1.63,3.64,2.15,5.51,1.17,1.58-.84,2.71-2.33,3.09-4.07l.98-4.49.75-3.22c.41-1,.43-1.73.19-2.54h.01Z"/>
        <path class="st3" d="M1689.31,384.12l1.32.79"/>
        <path class="st3" d="M1680.86,382.28l4.39,2.43"/>
        <path class="st3" d="M1680.01,386.36l3.59,1.75"/>
        <path class="st16" d="M1676.17,389.15l3.27.41c.42.05.81.22,1.13.49l1.45,1.21"/>
        <path class="st3" d="M1676.17,389.15l3.27.41c.42.05.81.22,1.13.49l1.45,1.21"/>
        <path class="st10" d="M1693.76,447.23l-2.78,3.86-1.4,1.94-4.17,5.8-.56-.25-3.06-1.37c-.15-.62-.24-1.26-.28-1.93v-.07c.07-1.49.37-3.04.94-4.58,1.02-2.77,2.72-5.03,4.69-6.51l1.45.69.83.38,2.87,1.35,1.47.69Z"/>
        <path class="st11" d="M1691.76,445.06l-1.01-.47c-.8-.37-1.74-.22-2.37.39l-2.12,2.02c-.81.77-.85,1.98-.25,2.81.31.42.28.97-.1,1.33-1.98,1.87-2.5,4.9-1.1,7.38.31.55.76,1.02,1.26,1.39l5.47,4.06,3.06-16.4-2.86-2.52h.02Z"/>
        <path class="st6" d="M1702.8,442.9c-.39-.89-1.14-1.55-2.07-1.82l-2.38-.69c-2.14-.63-4.38-.41-6.12.67-2.62,1.64-3.69,5.44-2.8,9.02.14.55.23,1.11.21,1.68l-.32,8.83c-.06,1.79.55,3.2,1.72,3.97.31.2.65.35,1.01.45.6.33,1.28.49,2.04.46.06,0,.13-.02.19-.03.32-.02.63-.06.96-.14.4-.1.8-.25,1.22-.44h.02c.1-.05.19-.12.29-.17.32-.17.64-.34.95-.55,1.9-1.3,3.47-3.35,4.35-5.48.2-.47.35-.95.48-1.42.16-.6.27-1.2.29-1.78l.37-10.19c.03-.9-.1-1.7-.4-2.37h-.01Z"/>
        <path class="st7" d="M1696.23,464.37c-3.2,1.51-5.72-.02-5.6-3.41l.37-10.19c.12-3.39,2.84-7.4,6.04-8.92,3.2-1.51,5.72.02,5.6,3.41l-.37,10.19c-.12,3.39-2.84,7.4-6.04,8.92Z"/>
        <path class="st7" d="M1720.72,443.94c-1.33,2.45-3.25,4.25-5.31,5.21-.35.16-.7.3-1.05.41-.27.09-.54.16-.81.21-.11.03-.22.05-.33.07-1.6.27-3.21.01-4.61-.86-1.68-1.04-2.79-2.77-3.29-4.83-.66-2.71-.25-5.96,1.34-8.91.99-1.82,2.3-3.28,3.75-4.3,1.23-.87,2.57-1.43,3.9-1.62,1.48-.22,2.95.02,4.26.77.07.03.13.07.2.11,3.88,2.4,4.75,8.55,1.95,13.74Z"/>
        <path class="st10" d="M1717.29,434.17l-2.78,3.86-1.4,1.94-4.17,5.8-.56-.25-3.06-1.37c-.66-2.71-.25-5.96,1.34-8.91.99-1.82,2.3-3.28,3.75-4.3l1.71.81.83.38,2.87,1.35,1.47.69Z"/>
        <path class="st11" d="M1715.29,431.99l-1.01-.47c-.8-.37-1.74-.22-2.37.39l-2.12,2.02c-.81.77-.85,1.98-.25,2.81.31.42.28.97-.1,1.33-1.98,1.87-2.5,4.9-1.09,7.38.31.55.76,1.02,1.26,1.39l5.47,4.06,3.06-16.4-2.86-2.52h.01Z"/>
        <path class="st6" d="M1726.33,429.84c-.39-.89-1.14-1.55-2.07-1.82l-2.38-.69c-2.14-.63-4.38-.41-6.12.67-2.62,1.64-3.69,5.44-2.8,9.02.18.74.21,1.5.19,2.26l-.3,8.25c-.06,1.79.55,3.2,1.72,3.97.31.2.65.35,1.01.45.6.33,1.28.49,2.04.46.06,0,.13-.02.19-.03.32-.02.63-.06.96-.14.4-.1.8-.25,1.21-.44h.02c.1-.05.19-.12.29-.17.32-.17.64-.34.95-.55,1.9-1.3,3.47-3.35,4.35-5.48.2-.47.35-.95.48-1.42.16-.6.27-1.2.29-1.78l.37-10.19c.03-.9-.1-1.7-.4-2.37Z"/>
        <path class="st7" d="M1719.76,451.3c-3.2,1.52-5.72-.02-5.6-3.41l.37-10.19c.12-3.39,2.84-7.4,6.04-8.92,3.2-1.51,5.72.02,5.6,3.41l-.37,10.19c-.12,3.39-2.84,7.4-6.04,8.92Z"/>
      </g>
    </g>
  </g>
  <g>
    <path class="st3" d="M590.92,233.55l-7.35,7.36"/>
    <g>
      <path class="st7" d="M612.94,238.85h22.59v15.37c0,1.64-1.32,2.97-2.96,2.97h-16.67c-1.64,0-2.97-1.33-2.97-2.97v-15.37h.01Z"/>
      <path class="st6" d="M655.51,198.61c0-18.45-15.97-33.17-34.84-31.08-14.43,1.6-26.02,13.26-27.53,27.7-.92,8.72,1.76,16.82,6.73,22.99,4.5,5.58,7.45,12.24,8.04,19.38l.04.36c.33,3.96,3.64,6.99,7.6,6.99h17.37c3.97,0,7.28-3.04,7.61-6.99.6-7.18,3.38-13.99,7.95-19.58,4.39-5.39,7.03-12.26,7.03-19.76Z"/>
      <path class="st2" d="M615.55,240.22c-1.5,0-2.78-1.17-2.9-2.67l-.03-.37c-.65-7.79-3.79-15.37-9.07-21.93-4.43-5.5-6.45-12.43-5.71-19.53,1.28-12.26,11.11-22.14,23.35-23.5,1.02-.11,2.04-.17,3.05-.17,14.64,0,26.55,11.91,26.55,26.55,0,6.1-2.12,12.06-5.97,16.78-5.2,6.37-8.31,14.04-8.99,22.17-.13,1.5-1.41,2.67-2.9,2.67h-17.38Z"/>
      <path class="st3" d="M616.99,202.01c0,2.64-4.78,10.56-4.78,10.56,0,0-4.78-7.91-4.78-10.56s2.14-4.78,4.78-4.78,4.78,2.14,4.78,4.78Z"/>
      <path class="st3" d="M629.02,202.01c0,2.64-4.78,10.56-4.78,10.56,0,0-4.79-7.91-4.79-10.56s2.15-4.78,4.79-4.78,4.78,2.14,4.78,4.78Z"/>
      <path class="st3" d="M612.21,212.57c-.72,1.6-2.27,2.66-4,2.71-1.84.07-3.56-1.01-4.33-2.71"/>
      <path class="st3" d="M644.59,212.57c-.71,1.6-2.26,2.66-4,2.71-1.84.07-3.55-1.01-4.32-2.71"/>
      <path class="st3" d="M624.24,212.57c-1.26,2.23-3.63,3.6-6.16,3.54-3.85-.08-5.79-3.39-5.87-3.54"/>
      <path class="st3" d="M641.05,202.01c0,2.64-4.78,10.56-4.78,10.56,0,0-4.79-7.91-4.79-10.56s2.15-4.78,4.79-4.78,4.78,2.14,4.78,4.78Z"/>
      <path class="st3" d="M636.27,212.57c-1.26,2.23-3.63,3.6-6.17,3.54-3.85-.08-5.78-3.39-5.86-3.54"/>
      <path class="st3" d="M624.24,146.37v-10.41"/>
      <path class="st3" d="M591.97,159.66l-7.36-7.36"/>
      <path class="st3" d="M656.51,159.66l7.36-7.36"/>
      <path class="st3" d="M578.55,200.3h-10.41"/>
      <path class="st3" d="M669.93,200.3h10.41"/>
      <path class="st3" d="M656.64,232.57l7.36,7.36"/>
    </g>
  </g>
</svg>