<?xml version="1.0" encoding="UTF-8"?>
<svg id="_레이어_1" data-name="레이어_1" xmlns="http://www.w3.org/2000/svg" version="1.1" viewBox="0 0 327.43 282.14">
  <!-- Generator: Adobe Illustrator 30.8.1, SVG Export Plug-In . SVG Version: 2.1.4 Build 1)  -->
  <defs>
    <style>
      .st0, .st1 {
        fill: #ff8879;
      }

      .st2 {
        stroke: #f0f0f1;
      }

      .st2, .st3, .st4, .st1, .st5, .st6, .st7, .st8, .st9 {
        stroke-linecap: round;
        stroke-linejoin: round;
        stroke-width: .75px;
      }

      .st2, .st8 {
        fill: none;
      }

      .st3 {
        fill: #232832;
      }

      .st3, .st4, .st1, .st5, .st6, .st7, .st8, .st9 {
        stroke: #232832;
      }

      .st4 {
        fill: #a87c50;
      }

      .st5 {
        fill: #ffb3a4;
      }

      .st6 {
        fill: #e8b2e2;
      }

      .st7, .st10 {
        fill: #f0f0f1;
      }

      .st9 {
        fill: #acb4c4;
      }
    </style>
  </defs>
  <polygon class="st5" points="144.57 154.14 125.21 165.88 123.86 150.09 134.98 146.73 144.57 154.14"/>
  <path class="st6" d="M251.52,139.47l-25.82,13.49,1.79,28.79h-76.55l-2.97-23.4-21.23-18,7.02-14.84s16.78-22.64,47.8-23.58c2.72-.19,5.24-.28,7.59-.28,1.43,0,2.78.04,4.09.1,38.62-1.01,51.28,25.84,58.28,37.72Z"/>
  <g>
    <g>
      <path class="st5" d="M216.26,81.4c0,3.07-.49,6.03-1.38,8.8-.89,2.75-2.18,5.33-3.82,7.64-5.17,7.37-16.59,12.19-26.28,12.19-12.74,0-23.96-7.08-25.28-19.22-.31-2.89-.5-6.33-.5-9.4,0-1.83.17-3.61.51-5.35.49-2.58,1.32-5.04,2.45-7.33,4.67-9.45,14.42-15.96,25.67-15.96s21,6.51,25.68,15.96c0,0,0,.03.02.04,1.11,2.28,1.94,4.72,2.43,7.29.32,1.73.51,3.52.51,5.35Z"/>
      <path class="st3" d="M167.9,87.16c0,1.2-.76,2.17-1.69,2.17s-1.69-.97-1.69-2.17.76-2.17,1.69-2.17,1.69.97,1.69,2.17Z"/>
      <path class="st3" d="M182.89,87.16c0,1.2-.76,2.17-1.69,2.17s-1.69-.97-1.69-2.17.76-2.17,1.69-2.17,1.69.97,1.69,2.17Z"/>
      <path class="st0" d="M189.01,91.4c0,1.41-1.14,2.55-2.55,2.55s-2.55-1.14-2.55-2.55,1.14-2.55,2.55-2.55,2.55,1.14,2.55,2.55Z"/>
      <path class="st1" d="M168,94.11h11.39s0,5.02-5.7,5c0,0-5.15.29-5.69-5Z"/>
      <path class="st8" d="M174.2,88.85c0,.27-.22.49-.49.49s-.49-.22-.49-.49.22-.49.49-.49.49.22.49.49Z"/>
      <path class="st8" d="M182.89,81.4s-1.91-1.57-3.49,0"/>
      <path class="st8" d="M167.95,81.4s-1.91-1.57-3.49,0"/>
    </g>
    <path class="st4" d="M220.97,79.05c-2.68,12.03-7.21,14.06-7.21,14.06l-8.58-16.63-3.89,4.91s.18-6.57-8.46-6.57h-12.98c-4.88,0-9.06-3.53-9.89-8.35l-.5-2.94-.5,2.94c-.82,4.82-5,8.35-9.89,8.35-2.35,0-4-2.3-3.26-4.53.52-1.55,1.13-3.05,1.84-4.5,5.76-11.65,17.77-19.66,31.63-19.66,10.83,0,20.51,4.88,26.97,12.54,0,0,0,0,.04.04.03.05.06.08.09.12.06.07.14.18.24.29,1.46,1.89,6.65,9.54,4.34,19.92Z"/>
    <path class="st5" d="M200.24,80.95c1.68-4.25,5.67-6.65,8.91-5.37,3.24,1.28,4.51,5.76,2.83,10.01-1.68,4.25-5.67,6.65-8.91,5.37-.39-.16-.76-.36-1.09-.6"/>
  </g>
  <path class="st5" d="M102.49,140.74l18.98-46.79,20.97,8.88-3.16,8.39-5.21,43.09c-.93,6.09-5.44,11.16-11.47,12.4-2.56.53-5.64.66-9.31.07-18.9-3.04-10.8-26.03-10.8-26.03Z"/>
  <g>
    <path class="st9" d="M163.18,76.58l-16.4-2.6v22.01l16.4-2.6c4.01,0,7.25-3.76,7.25-8.41s-3.25-8.41-7.25-8.41Z"/>
    <path class="st9" d="M141.4,70.97l-27.37-4.33v36.72l27.37-4.33c6.68,0,12.1-6.28,12.1-14.03s-5.42-14.03-12.1-14.03Z"/>
    <path class="st9" d="M112.09,64.17l-40.63-6.44v54.52l40.63-6.44c9.92,0,17.97-9.32,17.97-20.82s-8.05-20.82-17.97-20.82Z"/>
    <ellipse class="st7" cx="71.46" cy="84.99" rx="23.52" ry="27.26"/>
    <ellipse class="st3" cx="71.46" cy="84.99" rx="19.89" ry="23.05"/>
    <path class="st10" d="M68.07,76.48c.53-1.48,1.99-2.2,3.42-2.2,1.35,0,2.75.77,3.26,2.2l6.91,19.23h-5.83l-1.03-3.28h-6.81l-1.01,3.28h-5.72l6.81-19.23ZM69.37,87.94h4.05l-2.01-6.59-2.04,6.59Z"/>
  </g>
  <path class="st5" d="M122.43,102.02l2.31-.37s6.66-3.94,10.37-4.5,6.34-2.22,8.14-4.04,5.67-5.36,7.5,0c1.69,4.94-8.57,11.37-8.57,11.37l-2.9,6.74"/>
  <polygon class="st3" points="150.94 181.75 154.13 239.5 189.24 239.5 189.76 228.1 193.33 239.5 236.9 239.5 227.49 181.75 150.94 181.75"/>
  <path class="st5" d="M251.52,139.47l5.76,9.98s4.6,5.38,2.6,16.43c-2,11.05-23.47,27.32-23.47,27.32l-8.93-19.99,4.22-9.47-6-10.78,25.82-13.49Z"/>
  <line class="st2" x1="146.97" y1="145.66" x2="225.21" y2="145.66"/>
  <line class="st2" x1="147.97" y1="155.3" x2="225.7" y2="155.3"/>
  <line class="st2" x1="148.97" y1="164.94" x2="226.21" y2="164.94"/>
  <line class="st2" x1="149.97" y1="174.58" x2="227.03" y2="174.58"/>
  <line class="st6" x1="150.94" y1="181.75" x2="145.97" y2="140.56"/>
  <line class="st3" x1="227.49" y1="181.75" x2="224.71" y2="138.36"/>
  <g>
    <path class="st5" d="M248.17,176.92c3.53,2.12,4.44,6.83,1.95,10.11h0s-2.02,2.26-4.23,3.96c-1.51,1.17-3.42,2.17-5.81,2.79-.05.01-.1.02-.15.04l-.02-.02c-2.17.2-4.29.45-5.61.75-3.67.84-5.19,6.06-8.29,4.33-1.31-.73-1.36-2.46-.74-4.4-1.59,1.56-2.9,3.14-4.81,2.07-2.7-1.51-.05-7.25,2.86-10.41-3.37.26-6.2,3.89-8.4,1.46-1.41-1.56.13-4.17,2.45-6.34-1.18.45-2.25.53-3.2-.52-2.38-2.63,3.66-8.27,7.61-9.67,1.73-.61,4.17-.06,6.37.75h0"/>
    <line class="st5" x1="228.16" y1="171.83" x2="232.8" y2="173.21"/>
    <g>
      <path class="st5" d="M225.28,194.47s3.22-5.57,7.75-5.83"/>
      <path class="st5" d="M217.64,181.03s3.42-3.61,6.14-3.34c2.72.27,4.82.88,4.82.88"/>
      <path class="st5" d="M223.19,186.31s1.12-2.13,2.64-2.56c1.53-.43,4.69-.39,4.69-.39"/>
    </g>
  </g>
  <path class="st8" d="M231.71,163.74s4.9-10.39,14.79-9.49"/>
</svg>